<svg version="1.1" id="Layer_1" xmlns="http://www.w3.org/2000/svg" xmlns:xlink="http://www.w3.org/1999/xlink" x="0px" y="0px"
	 width="100%" viewBox="0 0 122 227" enable-background="new 0 0 122 227" xml:space="preserve">
<path fill="#FEFEFE" opacity="1.000000" stroke="none" 
	d="
M1.000000,103.000000 
	C1.000000,68.666672 1.000000,34.833336 1.000000,1.000005 
	C41.666660,1.000003 82.333321,1.000003 122.999985,1.000002 
	C122.999992,76.666656 122.999992,152.333313 123.000000,227.999969 
	C82.333344,227.999985 41.666691,227.999985 1.000017,228.000000 
	C1.000000,186.500000 1.000000,145.000000 1.000000,103.000000 
M99.012634,10.009309 
	C93.179871,10.005891 87.346474,9.945383 81.514450,10.009395 
	C61.249683,10.231821 43.012112,24.435938 39.117760,44.267441 
	C37.407108,52.978714 37.851967,62.140999 37.629269,71.106232 
	C37.497730,76.401649 35.954494,80.757195 32.012638,84.448135 
	C25.567430,90.483093 19.317234,96.728996 13.061271,102.962677 
	C5.522360,110.474731 5.598352,119.581200 13.191483,127.170067 
	C15.902163,129.879227 18.705252,132.496109 21.407297,135.213654 
	C39.759510,153.671127 37.397209,146.709991 37.568180,173.594009 
	C37.571358,174.093933 37.557945,174.594269 37.572746,175.093796 
	C38.210670,196.621033 51.252239,214.078369 71.398598,218.408722 
	C80.048615,220.268005 89.249771,219.814133 98.206444,219.922485 
	C106.504166,220.022903 112.508537,213.610687 112.662262,205.244064 
	C112.818481,196.741257 106.672859,190.209198 98.190796,190.020615 
	C93.027222,189.905807 87.858261,190.055145 82.693108,189.984650 
	C73.786179,189.863129 67.965469,184.239883 67.709175,175.400482 
	C67.559517,170.238632 67.668427,165.069046 67.675964,159.902954 
	C67.696419,145.893326 63.125725,133.767670 52.763813,124.120117 
	C49.645725,121.216988 46.222435,118.641663 42.623463,115.654305 
	C47.480724,110.962112 51.023586,107.673645 54.415886,104.236557 
	C63.279427,95.256027 67.461472,84.314964 67.658585,71.792992 
	C67.745132,66.294922 67.603523,60.793198 67.694305,55.295261 
	C67.850616,45.828442 73.607513,40.108501 83.001656,40.010090 
	C87.334038,39.964703 91.667313,40.007580 96.000168,40.001122 
	C105.600227,39.986805 111.356857,35.433807 112.524445,26.939812 
	C113.660278,18.676813 109.120201,12.601855 99.012634,10.009309 
z"/>
<path fill="#1A3355" opacity="1.000000" stroke="none" 
	d="
M99.454422,10.025792 
	C109.120201,12.601855 113.660278,18.676813 112.524445,26.939812 
	C111.356857,35.433807 105.600227,39.986805 96.000168,40.001122 
	C91.667313,40.007580 87.334038,39.964703 83.001656,40.010090 
	C73.607513,40.108501 67.850616,45.828442 67.694305,55.295261 
	C67.603523,60.793198 67.745132,66.294922 67.658585,71.792992 
	C67.461472,84.314964 63.279427,95.256027 54.415886,104.236557 
	C51.023586,107.673645 47.480724,110.962112 42.623463,115.654305 
	C46.222435,118.641663 49.645725,121.216988 52.763813,124.120117 
	C63.125725,133.767670 67.696419,145.893326 67.675964,159.902954 
	C67.668427,165.069046 67.559517,170.238632 67.709175,175.400482 
	C67.965469,184.239883 73.786179,189.863129 82.693108,189.984650 
	C87.858261,190.055145 93.027222,189.905807 98.190796,190.020615 
	C106.672859,190.209198 112.818481,196.741257 112.662262,205.244064 
	C112.508537,213.610687 106.504166,220.022903 98.206444,219.922485 
	C89.249771,219.814133 80.048615,220.268005 71.398598,218.408722 
	C51.252239,214.078369 38.210670,196.621033 37.572746,175.093796 
	C37.557945,174.594269 37.571358,174.093933 37.568180,173.594009 
	C37.397209,146.709991 39.759510,153.671127 21.407297,135.213654 
	C18.705252,132.496109 15.902163,129.879227 13.191483,127.170067 
	C5.598352,119.581200 5.522360,110.474731 13.061271,102.962677 
	C19.317234,96.728996 25.567430,90.483093 32.012638,84.448135 
	C35.954494,80.757195 37.497730,76.401649 37.629269,71.106232 
	C37.851967,62.140999 37.407108,52.978714 39.117760,44.267441 
	C43.012112,24.435938 61.249683,10.231821 81.514450,10.009395 
	C87.346474,9.945383 93.179871,10.005891 99.454422,10.025792 
z"/>
</svg>