<svg version="1.1" id="Layer_1" xmlns="http://www.w3.org/2000/svg" xmlns:xlink="http://www.w3.org/1999/xlink" x="0px" y="0px"
	 width="100%" viewBox="0 0 122 227" enable-background="new 0 0 122 227" xml:space="preserve">
<path fill="#FEFEFE" opacity="1.000000" stroke="none" 
	d="
M1.000000,103.000000 
	C1.000000,68.666672 1.000000,34.833336 1.000000,1.000005 
	C41.666660,1.000003 82.333321,1.000003 122.999985,1.000002 
	C122.999992,76.666656 122.999992,152.333313 123.000000,227.999969 
	C82.333344,227.999985 41.666691,227.999985 1.000017,228.000000 
	C1.000000,186.500000 1.000000,145.000000 1.000000,103.000000 
M45.112759,10.053827 
	C38.780697,10.035412 32.447540,9.934556 26.116838,10.018700 
	C17.507366,10.133132 11.378898,16.388445 11.337743,24.935148 
	C11.296622,33.474876 17.422102,39.821709 25.984764,39.984089 
	C30.982204,40.078854 35.983284,39.962307 40.982048,40.010914 
	C50.387264,40.102356 56.144711,45.815182 56.305740,55.277836 
	C56.396458,60.608829 56.292500,65.942833 56.332806,71.275055 
	C56.430344,84.178360 60.729145,95.391571 69.910751,104.588524 
	C73.296387,107.979828 76.767258,111.286026 80.579872,115.001999 
	C76.928535,118.552246 73.723320,121.668236 70.518623,124.784767 
	C60.916931,134.122299 56.520805,145.637024 56.338032,158.880295 
	C56.262154,164.378433 56.442020,169.881790 56.290245,175.376816 
	C56.045795,184.227463 50.230286,189.859650 41.331661,189.984253 
	C36.166794,190.056580 30.998133,189.907837 25.834673,190.019775 
	C17.345001,190.203796 11.200018,196.711182 11.337743,205.217484 
	C11.473148,213.580505 17.473000,219.793671 25.767365,219.976974 
	C31.263844,220.098450 36.765537,220.043213 42.264244,219.994110 
	C62.808792,219.810669 81.009392,205.595078 84.933273,185.469345 
	C86.600784,176.916595 86.161079,167.925705 86.373154,159.126541 
	C86.504807,153.664078 88.084160,149.151428 92.181755,145.348557 
	C98.286324,139.683060 104.135948,133.742050 110.069992,127.893852 
	C118.824776,119.265724 118.761131,110.674232 109.897568,101.933449 
	C107.643394,99.710495 105.333328,97.543495 103.103951,95.296219 
	C83.863541,75.901321 86.636726,83.525818 86.446877,56.144398 
	C86.338051,40.448944 80.730667,27.171797 67.544861,18.528055 
	C61.242992,14.396961 53.250050,12.845563 45.112759,10.053827 
z"/>
<path fill="#1A3355" opacity="1.000000" stroke="none" 
	d="
M45.567902,10.089783 
	C53.250050,12.845563 61.242992,14.396961 67.544861,18.528055 
	C80.730667,27.171797 86.338051,40.448944 86.446877,56.144398 
	C86.636726,83.525818 83.863541,75.901321 103.103951,95.296219 
	C105.333328,97.543495 107.643394,99.710495 109.897568,101.933449 
	C118.761131,110.674232 118.824776,119.265724 110.069992,127.893852 
	C104.135948,133.742050 98.286324,139.683060 92.181755,145.348557 
	C88.084160,149.151428 86.504807,153.664078 86.373154,159.126541 
	C86.161079,167.925705 86.600784,176.916595 84.933273,185.469345 
	C81.009392,205.595078 62.808792,219.810669 42.264244,219.994110 
	C36.765537,220.043213 31.263844,220.098450 25.767365,219.976974 
	C17.473000,219.793671 11.473148,213.580505 11.337743,205.217484 
	C11.200018,196.711182 17.345001,190.203796 25.834673,190.019775 
	C30.998133,189.907837 36.166794,190.056580 41.331661,189.984253 
	C50.230286,189.859650 56.045795,184.227463 56.290245,175.376816 
	C56.442020,169.881790 56.262154,164.378433 56.338032,158.880295 
	C56.520805,145.637024 60.916931,134.122299 70.518623,124.784767 
	C73.723320,121.668236 76.928535,118.552246 80.579872,115.001999 
	C76.767258,111.286026 73.296387,107.979828 69.910751,104.588524 
	C60.729145,95.391571 56.430344,84.178360 56.332806,71.275055 
	C56.292500,65.942833 56.396458,60.608829 56.305740,55.277836 
	C56.144711,45.815182 50.387264,40.102356 40.982048,40.010914 
	C35.983284,39.962307 30.982204,40.078854 25.984764,39.984089 
	C17.422102,39.821709 11.296622,33.474876 11.337743,24.935148 
	C11.378898,16.388445 17.507366,10.133132 26.116838,10.018700 
	C32.447540,9.934556 38.780697,10.035412 45.567902,10.089783 
z"/>
</svg>