<svg version="1.1" id="Layer_1" xmlns="http://www.w3.org/2000/svg" xmlns:xlink="http://www.w3.org/1999/xlink" x="0px" y="0px"
	 width="100%" viewBox="0 0 225 225" enable-background="new 0 0 225 225" xml:space="preserve">
<path fill="#F40100" opacity="1.000000" stroke="none" 
	d="
M1.000000,105.000000 
	C1.000000,70.362564 1.000000,35.725136 1.000000,1.043851 
	C75.907501,1.043851 150.815033,1.043851 226.000000,1.043851 
	C226.000000,64.020622 226.000000,127.041656 225.651428,190.384613 
	C223.508865,184.922729 222.008072,179.026520 219.845200,173.384094 
	C217.258453,166.635880 213.889984,160.406845 205.641296,158.974487 
	C202.984955,158.513214 200.233307,157.726395 197.906845,156.412720 
	C192.178299,153.178070 186.761826,149.391678 181.040878,146.142258 
	C177.638504,144.209763 177.375778,142.007187 179.010895,138.808426 
	C180.980148,134.956070 183.069534,131.097183 184.421814,127.014206 
	C186.207001,121.624214 187.461792,116.043800 188.694931,110.489807 
	C189.952744,104.824562 191.461441,99.130608 191.860962,93.379799 
	C192.404694,85.553108 192.001846,77.660553 192.002060,69.796242 
	C192.002228,64.094254 192.044540,58.391525 191.954285,52.690926 
	C191.937027,51.600628 191.246506,50.535526 191.116135,49.429398 
	C190.857498,47.234638 191.208649,44.870548 190.517487,42.846272 
	C189.380142,39.515198 188.410400,34.780128 185.931885,33.561207 
	C181.955872,31.605818 181.020584,36.199329 179.908218,39.306042 
	C175.286713,52.213585 166.403000,61.659943 154.227890,67.232925 
	C144.522995,71.675194 134.029007,74.422966 123.808151,77.680931 
	C122.011238,78.253708 119.700378,78.061050 117.855774,77.486725 
	C110.886703,75.316826 104.131996,74.786407 97.352798,78.240417 
	C95.389534,79.240707 92.984428,80.069321 90.851440,79.927849 
	C77.229637,79.024414 66.422134,72.501617 58.055874,62.057350 
	C54.348782,57.429497 51.573498,52.055233 48.632816,47.425343 
	C44.969139,64.400841 50.053703,82.408371 43.294960,99.419586 
	C41.262989,97.829269 39.105774,96.085815 36.891674,94.417877 
	C28.509277,88.103203 16.561804,86.657700 9.733299,92.363434 
	C5.946495,95.527596 3.855405,100.721153 1.000000,105.000000 
z"/>
<path fill="#010101" opacity="1.000000" stroke="none" 
	d="
M1.000000,105.460632 
	C3.855405,100.721153 5.946495,95.527596 9.733299,92.363434 
	C16.561804,86.657700 28.509277,88.103203 36.891674,94.417877 
	C39.105774,96.085815 41.262989,97.829269 43.294960,99.419586 
	C50.053703,82.408371 44.969139,64.400841 48.632816,47.425343 
	C51.573498,52.055233 54.348782,57.429497 58.055874,62.057350 
	C66.422134,72.501617 77.229637,79.024414 90.851440,79.927849 
	C92.984428,80.069321 95.389534,79.240707 97.352798,78.240417 
	C104.131996,74.786407 110.886703,75.316826 117.855774,77.486725 
	C119.700378,78.061050 122.011238,78.253708 123.808151,77.680931 
	C134.029007,74.422966 144.522995,71.675194 154.227890,67.232925 
	C166.403000,61.659943 175.286713,52.213585 179.908218,39.306042 
	C181.020584,36.199329 181.955872,31.605818 185.931885,33.561207 
	C188.410400,34.780128 189.380142,39.515198 190.517487,42.846272 
	C191.208649,44.870548 190.857498,47.234638 191.116135,49.429398 
	C191.246506,50.535526 191.937027,51.600628 191.954285,52.690926 
	C192.044540,58.391525 192.002228,64.094254 192.002060,69.796242 
	C192.001846,77.660553 192.404694,85.553108 191.860962,93.379799 
	C191.461441,99.130608 189.952744,104.824562 188.694931,110.489807 
	C187.461792,116.043800 186.207001,121.624214 184.421814,127.014206 
	C183.069534,131.097183 180.980148,134.956070 179.010895,138.808426 
	C177.375778,142.007187 177.638504,144.209763 181.040878,146.142258 
	C186.761826,149.391678 192.178299,153.178070 197.906845,156.412720 
	C200.233307,157.726395 202.984955,158.513214 205.641296,158.974487 
	C213.889984,160.406845 217.258453,166.635880 219.845200,173.384094 
	C222.008072,179.026520 223.508865,184.922729 225.651428,190.853271 
	C226.000000,191.444443 226.000000,191.888901 225.679825,192.750580 
	C216.014847,189.051163 206.653885,184.970276 197.348984,180.765320 
	C196.362762,180.319626 195.766296,179.074188 194.881882,178.326477 
	C193.349808,177.031189 191.910614,175.405319 190.123154,174.670059 
	C181.299698,171.040695 172.446899,167.448959 163.433731,164.338684 
	C161.238510,163.581146 157.868637,163.855148 155.940643,165.077362 
	C142.562790,173.557907 127.686821,176.481522 112.366135,175.793991 
	C89.959320,174.788452 69.431282,166.990585 50.211761,155.623077 
	C45.547333,152.864273 41.497383,149.985550 35.220177,149.542130 
	C22.266317,148.627014 12.879848,140.550323 6.515763,129.351776 
	C4.298300,125.449837 2.817325,121.129341 0.999999,117.000000 
	C1.000000,113.307091 1.000000,109.614182 1.000000,105.460632 
M90.046478,114.274857 
	C90.821701,115.138496 91.542953,116.058792 92.380623,116.856888 
	C99.479477,123.620377 107.898117,124.921158 116.738121,121.622108 
	C125.655060,118.294350 130.230072,110.619637 130.667191,101.748520 
	C131.077438,93.422623 126.725204,86.446152 119.170425,81.988609 
	C108.728111,75.827324 95.174438,80.187904 90.830040,87.036858 
	C85.616547,95.255966 84.291557,104.502167 90.046478,114.274857 
M50.358421,108.089447 
	C56.826679,119.371704 71.412560,119.393829 78.635948,111.929176 
	C86.422348,103.882721 85.357811,90.533249 76.097267,83.628143 
	C70.452812,79.419373 57.674564,80.220650 53.178925,85.462891 
	C49.405312,89.863197 45.750957,101.008545 50.358421,108.089447 
M98.380638,152.112686 
	C103.972977,152.726990 109.551575,153.580811 115.160698,153.902374 
	C124.828255,154.456619 134.384155,153.687805 143.472076,149.956467 
	C144.616745,149.486496 146.452530,148.496262 146.444916,147.762878 
	C146.365540,140.118073 152.564697,139.070633 157.916580,136.608429 
	C156.745224,134.702805 155.595047,132.831635 154.405563,130.896515 
	C131.847305,147.382248 106.605835,149.914963 80.080566,146.417252 
	C80.011032,146.946640 79.941498,147.476044 79.871956,148.005432 
	C85.751297,149.342453 91.630638,150.679489 98.380638,152.112686 
M11.414321,112.119278 
	C13.346251,115.486732 16.668146,115.973938 19.554092,114.632744 
	C23.831291,112.645012 25.241842,108.267548 23.779928,104.139404 
	C22.908480,101.678604 20.051205,99.311615 17.523773,98.275444 
	C16.009481,97.654633 12.349345,99.105644 11.517783,100.637421 
	C9.764089,103.867790 6.963284,107.692986 11.414321,112.119278 
z"/>
<path fill="#F40100" opacity="1.000000" stroke="none" 
	d="
M0.999999,117.468658 
	C2.817325,121.129341 4.298300,125.449837 6.515763,129.351776 
	C12.879848,140.550323 22.266317,148.627014 35.220177,149.542130 
	C41.497383,149.985550 45.547333,152.864273 50.211761,155.623077 
	C69.431282,166.990585 89.959320,174.788452 112.366135,175.793991 
	C127.686821,176.481522 142.562790,173.557907 155.940643,165.077362 
	C157.868637,163.855148 161.238510,163.581146 163.433731,164.338684 
	C172.446899,167.448959 181.299698,171.040695 190.123154,174.670059 
	C191.910614,175.405319 193.349808,177.031189 194.881882,178.326477 
	C195.766296,179.074188 196.362762,180.319626 197.348984,180.765320 
	C206.653885,184.970276 216.014847,189.051163 225.679825,193.083923 
	C226.000000,203.986877 226.000000,214.973740 226.000000,225.980316 
	C151.102631,225.980316 76.205269,225.980316 1.000000,225.980316 
	C1.000000,189.979691 1.000000,153.958496 0.999999,117.468658 
z"/>
<path fill="#F40100" opacity="1.000000" stroke="none" 
	d="
M89.947495,113.914497 
	C84.291557,104.502167 85.616547,95.255966 90.830040,87.036858 
	C95.174438,80.187904 108.728111,75.827324 119.170425,81.988609 
	C126.725204,86.446152 131.077438,93.422623 130.667191,101.748520 
	C130.230072,110.619637 125.655060,118.294350 116.738121,121.622108 
	C107.898117,124.921158 99.479477,123.620377 92.380623,116.856888 
	C91.542953,116.058792 90.821701,115.138496 89.947495,113.914497 
M108.903244,94.058319 
	C104.179787,96.963005 102.600426,101.179222 102.906982,106.653870 
	C103.180428,111.537292 105.957970,114.454330 109.947525,115.617767 
	C114.405769,116.917870 119.314194,116.316353 122.601334,112.555580 
	C126.735695,107.825516 126.546051,103.445351 122.879570,97.770622 
	C120.508278,94.100494 114.990181,92.520088 108.903244,94.058319 
z"/>
<path fill="#F40100" opacity="1.000000" stroke="none" 
	d="
M50.186180,107.769585 
	C45.750957,101.008545 49.405312,89.863197 53.178925,85.462891 
	C57.674564,80.220650 70.452812,79.419373 76.097267,83.628143 
	C85.357811,90.533249 86.422348,103.882721 78.635948,111.929176 
	C71.412560,119.393829 56.826679,119.371704 50.186180,107.769585 
M67.643593,92.832893 
	C66.680458,93.469238 65.691536,94.070107 64.758591,94.748001 
	C60.464432,97.868248 60.824711,104.229996 63.010254,107.404030 
	C66.268173,112.135452 71.834595,113.061188 77.081825,109.980087 
	C80.981392,107.690300 82.342285,102.632065 79.786491,97.899826 
	C77.384537,93.452438 73.423332,91.398720 67.643593,92.832893 
z"/>
<path fill="#F40100" opacity="1.000000" stroke="none" 
	d="
M97.945312,152.064606 
	C91.630638,150.679489 85.751297,149.342453 79.871956,148.005432 
	C79.941498,147.476044 80.011032,146.946640 80.080566,146.417252 
	C106.605835,149.914963 131.847305,147.382248 154.405563,130.896515 
	C155.595047,132.831635 156.745224,134.702805 157.916580,136.608429 
	C152.564697,139.070633 146.365540,140.118073 146.444916,147.762878 
	C146.452530,148.496262 144.616745,149.486496 143.472076,149.956467 
	C134.384155,153.687805 124.828255,154.456619 115.160698,153.902374 
	C109.551575,153.580811 103.972977,152.726990 97.945312,152.064606 
z"/>
<path fill="#F40100" opacity="1.000000" stroke="none" 
	d="
M11.186287,111.795410 
	C6.963284,107.692986 9.764089,103.867790 11.517783,100.637421 
	C12.349345,99.105644 16.009481,97.654633 17.523773,98.275444 
	C20.051205,99.311615 22.908480,101.678604 23.779928,104.139404 
	C25.241842,108.267548 23.831291,112.645012 19.554092,114.632744 
	C16.668146,115.973938 13.346251,115.486732 11.186287,111.795410 
z"/>
<path fill="#030303" opacity="1.000000" stroke="none" 
	d="
M109.292953,94.024643 
	C114.990181,92.520088 120.508278,94.100494 122.879570,97.770622 
	C126.546051,103.445351 126.735695,107.825516 122.601334,112.555580 
	C119.314194,116.316353 114.405769,116.917870 109.947525,115.617767 
	C105.957970,114.454330 103.180428,111.537292 102.906982,106.653870 
	C102.600426,101.179222 104.179787,96.963005 109.292953,94.024643 
z"/>
<path fill="#020202" opacity="1.000000" stroke="none" 
	d="
M67.935791,92.574524 
	C73.423332,91.398720 77.384537,93.452438 79.786491,97.899826 
	C82.342285,102.632065 80.981392,107.690300 77.081825,109.980087 
	C71.834595,113.061188 66.268173,112.135452 63.010254,107.404030 
	C60.824711,104.229996 60.464432,97.868248 64.758591,94.748001 
	C65.691536,94.070107 66.680458,93.469238 67.935791,92.574524 
z"/>
</svg>