<svg version="1.1" id="Layer_1" xmlns="http://www.w3.org/2000/svg" xmlns:xlink="http://www.w3.org/1999/xlink" x="0px" y="0px"
	 width="100%" viewBox="0 0 512 512" enable-background="new 0 0 512 512" xml:space="preserve">
<path fill="#000000" opacity="1.000000" stroke="none" 
	d="
M270.000000,1.000000 
	C350.968933,1.000000 431.937866,1.000000 512.953369,1.000000 
	C512.953369,171.570114 512.953369,342.140259 512.953369,513.000000 
	C387.644806,513.000000 262.289368,513.000000 136.731812,512.780457 
	C141.090118,510.673676 143.842804,507.211731 145.991577,502.813538 
	C153.592392,487.255707 161.468414,471.832581 169.205658,456.341187 
	C175.528946,443.680817 181.961441,431.071136 188.032303,418.290222 
	C191.086044,411.861176 189.005539,406.090057 183.443420,403.498627 
	C177.982605,400.954468 172.605896,402.881897 169.269623,408.984894 
	C166.076859,414.825348 163.283142,420.882660 160.215408,426.793488 
	C159.335571,428.488708 159.028580,430.666046 156.882950,431.556824 
	C154.882950,430.789764 154.556396,428.822998 153.743561,427.275848 
	C150.261581,420.648315 147.013916,413.891693 143.348984,407.368591 
	C141.324539,403.765381 137.763672,402.081665 133.615265,402.510071 
	C129.492554,402.935852 126.467056,405.280060 124.943718,409.141785 
	C123.503998,412.791565 124.427902,416.300140 126.142479,419.706329 
	C131.681854,430.710815 137.059204,441.798218 142.719269,452.739716 
	C144.440094,456.066254 144.310654,458.856750 142.634933,462.124451 
	C137.012527,473.088287 131.535126,484.128784 126.159119,495.215973 
	C122.441040,502.884003 124.072144,507.618500 131.463776,511.763641 
	C132.029129,512.080750 132.490372,512.583496 133.000000,513.000000 
	C89.021584,513.000000 45.043175,513.000000 1.032380,513.000000 
	C1.032380,342.438660 1.032380,171.877304 1.032380,1.000000 
	C81.021736,1.000000 161.043884,1.000000 241.173584,1.213646 
	C239.827225,1.728200 238.381577,2.240819 236.918152,2.297847 
	C218.749146,3.005878 200.800522,5.427852 183.067154,9.364299 
	C162.322754,13.969136 142.194031,20.244823 124.337463,32.274353 
	C110.258583,41.758961 101.390297,54.216957 101.402496,71.937538 
	C101.446762,136.262436 101.356171,200.587463 101.459122,264.912231 
	C101.471725,272.786224 103.061798,280.462067 107.494843,287.257324 
	C115.849457,300.063660 128.219452,307.784027 141.743561,313.847107 
	C169.787918,326.419891 199.666275,331.284760 229.977310,333.473999 
	C262.643036,335.833282 295.190186,334.194550 327.368896,327.621826 
	C349.344208,323.133209 370.704163,316.938263 389.576202,304.188477 
	C403.464783,294.805450 412.586884,282.543152 412.597992,265.050903 
	C412.639069,200.392670 412.664642,135.734329 412.554626,71.076263 
	C412.535583,59.877617 408.940552,49.932304 400.860382,41.712246 
	C389.574554,30.231089 375.632385,23.299427 360.818207,17.938734 
	C333.678802,8.117985 305.534515,3.465053 276.756409,2.363126 
	C274.424988,2.273855 272.067047,2.373885 270.000000,1.000000 
M389.823059,359.537933 
	C378.500031,356.617249 366.962646,357.617432 355.551544,358.210358 
	C336.859955,359.181519 324.441437,372.863831 324.372803,391.681488 
	C324.324219,405.000061 324.925476,418.348358 324.230011,431.630676 
	C323.255157,450.249359 336.937653,469.351746 360.657745,467.806274 
	C371.055023,467.128876 381.664124,469.325836 391.822601,465.482452 
	C393.830505,464.722778 395.321014,465.921021 396.971649,466.657776 
	C400.761566,468.349426 404.427399,468.100311 407.840881,465.672180 
	C411.356720,463.171295 413.128906,459.240570 411.554779,455.629272 
	C409.193878,450.212952 410.870728,445.430817 411.568115,440.243530 
	C413.771790,423.852356 412.796783,407.326416 412.380157,390.891266 
	C412.007782,376.201355 404.769623,365.312897 389.823059,359.537933 
M43.103836,412.441315 
	C44.605114,414.438599 46.024708,416.503998 47.622749,418.420593 
	C52.770248,424.594147 60.479641,424.631439 65.660202,418.459534 
	C67.798851,415.911621 69.607292,413.088348 71.713646,410.511017 
	C73.838310,407.911407 75.230957,404.585724 78.451416,402.819489 
	C79.818375,404.849335 79.346031,406.727448 79.351326,408.495972 
	C79.394638,422.989502 79.375587,437.483185 79.376900,451.976837 
	C79.377014,453.309570 79.334824,454.644867 79.401009,455.974579 
	C79.757507,463.137115 84.219795,467.831696 90.443405,467.627869 
	C96.517883,467.428986 100.576927,462.880890 100.597122,455.731354 
	C100.677124,427.410675 100.656456,399.089661 100.644310,370.768768 
	C100.641472,364.157288 98.411598,360.338470 93.763329,358.687439 
	C88.805672,356.926453 84.331810,358.481781 80.317451,363.663055 
	C75.728157,369.586426 71.398399,375.711945 66.770569,381.604126 
	C63.517384,385.746063 60.908234,390.449280 56.882507,393.949493 
	C54.263329,392.545105 53.081013,390.273895 51.597137,388.317078 
	C45.457893,380.221161 39.408760,372.056824 33.261990,363.966675 
	C29.198580,358.618591 24.901867,356.897461 20.004208,358.464417 
	C15.546711,359.890594 12.491738,364.183929 12.467467,370.288025 
	C12.354860,398.608307 12.404600,426.929321 12.455591,455.249969 
	C12.460083,457.745087 13.043018,460.229706 14.238947,462.452026 
	C16.403637,466.474457 21.330196,468.549927 25.795336,467.459320 
	C30.311916,466.356140 33.590485,462.335419 33.633396,457.083893 
	C33.765438,440.925415 33.681759,424.765289 33.767509,408.606262 
	C33.777374,406.746796 33.047184,404.617188 34.997116,402.865784 
	C38.580246,405.057251 40.015385,409.005798 43.103836,412.441315 
M300.508179,385.996002 
	C299.162567,379.188263 295.679474,373.675476 290.428253,369.199493 
	C274.004913,355.200775 243.824371,354.084259 226.396439,366.851532 
	C207.003403,381.058411 209.111908,405.394836 230.640152,416.049347 
	C235.294800,418.352966 240.177429,420.000122 245.191483,421.255951 
	C251.940109,422.946106 251.941757,422.891846 254.456238,416.456329 
	C254.596558,416.097168 255.155685,415.901703 256.248352,415.086670 
	C255.497330,423.302185 260.633575,424.912933 266.708435,425.840118 
	C269.118317,426.207916 271.411926,427.463165 273.704834,428.440277 
	C276.553528,429.654205 279.082184,431.246429 279.290100,434.798615 
	C279.497345,438.339417 277.078217,440.259583 274.547821,441.896637 
	C266.813293,446.900482 258.195953,447.416870 249.497025,445.869812 
	C241.794601,444.499908 235.394547,441.243073 233.153488,432.569214 
	C232.122101,428.577301 228.614349,426.558411 224.359192,426.341095 
	C216.519394,425.940674 211.766830,432.156555 213.715530,440.485199 
	C215.950378,450.036835 222.096405,456.508423 230.385223,461.289703 
	C248.643188,471.821564 276.088257,469.466980 290.893890,456.028778 
	C305.804657,442.495148 303.839050,421.744568 286.607788,411.361786 
	C280.852844,407.894104 274.541962,405.808807 268.022278,404.253021 
	C258.985748,402.096558 249.578583,401.400024 240.994995,397.444580 
	C238.069138,396.096283 235.056061,394.680664 234.760117,390.979919 
	C234.446976,387.064178 237.238907,384.858124 240.192078,383.267731 
	C251.084412,377.401794 262.174133,377.331085 273.206726,382.895874 
	C276.387360,384.500183 278.753143,386.952118 280.001038,390.521851 
	C282.371124,397.301941 286.735626,400.424713 291.937042,399.452026 
	C297.744415,398.365997 300.615662,394.173584 300.508179,385.996002 
M456.710327,422.499969 
	C456.703308,404.844086 456.753510,387.187866 456.661469,369.532440 
	C456.624023,362.346039 452.631989,358.159485 446.209808,358.138947 
	C439.653595,358.117981 435.506500,362.911041 435.416687,371.037750 
	C435.293365,382.196259 435.378113,393.357147 435.378632,404.516998 
	C435.379364,421.006927 435.340240,437.497070 435.406036,453.986755 
	C435.438995,462.245850 439.028229,467.440521 445.552124,467.564850 
	C460.868835,467.856689 476.196991,467.788086 491.516388,467.573486 
	C496.918671,467.497833 500.779419,463.135437 501.047516,457.849670 
	C501.308899,452.696625 498.140442,448.537659 492.972656,447.339783 
	C488.877136,446.390411 484.718201,446.501190 480.543732,446.575562 
	C474.053436,446.691193 467.559418,446.580780 461.067169,446.610077 
	C457.913452,446.624298 456.638092,445.123505 456.693390,441.987915 
	C456.802032,435.827087 456.714905,429.662781 456.710327,422.499969 
z"/>
<path fill="#000000" opacity="1.000000" stroke="none" 
	d="
M373.150452,46.752861 
	C378.326935,49.884861 382.940582,53.147175 386.590210,57.582489 
	C392.100189,64.278725 392.406464,70.083328 387.254059,77.059746 
	C381.092957,85.401932 372.100891,89.981071 362.989441,94.080582 
	C342.620758,103.245010 321.014008,107.714188 298.946625,110.423920 
	C278.890869,112.886635 258.772552,113.275269 238.651260,112.311501 
	C206.389832,110.766243 174.757187,106.002510 145.429153,91.343109 
	C138.108002,87.683678 131.155807,83.368622 126.321724,76.443199 
	C121.920616,70.138062 121.973877,64.700684 126.647720,58.548893 
	C131.716614,51.877110 138.669464,47.571285 145.980606,43.873074 
	C166.127136,33.682285 187.816315,28.735386 209.989426,25.744284 
	C229.135834,23.161476 248.413010,21.994076 267.727631,22.794287 
	C299.602692,24.114880 331.056946,27.929825 360.782532,40.563477 
	C364.906219,42.316074 368.822571,44.556446 373.150452,46.752861 
z"/>
<path fill="#000000" opacity="1.000000" stroke="none" 
	d="
M381.069519,242.017456 
	C384.295013,240.396423 386.707642,237.873199 390.020935,237.486145 
	C391.761108,239.261246 391.237610,241.187927 391.253693,242.940002 
	C391.316376,249.772537 391.084686,256.612488 391.317627,263.437531 
	C391.601959,271.769073 388.355591,278.271912 382.007477,283.449463 
	C369.437958,293.701324 354.571259,299.110748 339.220917,303.165649 
	C306.113556,311.911072 272.417236,314.445618 238.237564,312.610016 
	C212.343643,311.219391 186.930359,307.674255 162.312149,299.338348 
	C151.049255,295.524658 140.318802,290.686127 131.238068,282.713867 
	C125.489838,277.667358 122.592857,271.527954 122.725418,263.828613 
	C122.873978,255.200241 122.759552,246.567368 122.759552,238.470779 
	C124.642654,237.076691 125.723915,237.672928 126.696617,238.272766 
	C151.021942,253.273071 178.068115,259.757996 205.934052,263.825226 
	C224.595581,266.549042 243.355072,267.971863 262.176147,267.535339 
	C295.425568,266.764160 328.230927,262.818207 359.789032,251.559494 
	C367.007263,248.984314 374.051666,245.962692 381.069519,242.017456 
z"/>
<path fill="#000000" opacity="1.000000" stroke="none" 
	d="
M308.483612,130.369690 
	C332.189941,126.668167 354.949371,121.310577 376.339966,111.034233 
	C380.955994,108.816628 384.892578,105.307907 389.772125,103.849533 
	C390.231934,104.203796 390.693298,104.381874 390.713013,104.599899 
	C391.672729,115.212906 391.917847,125.868561 390.578522,136.426651 
	C389.646393,143.774490 383.986053,148.190506 378.377197,152.178497 
	C367.663940,159.795807 355.569000,164.522095 343.079773,168.278152 
	C310.819305,177.980301 277.702148,180.267319 244.258469,179.341370 
	C216.174255,178.563797 188.561172,174.768951 161.953674,165.306442 
	C150.285873,161.156982 139.108887,156.056381 129.912689,147.409882 
	C125.008896,142.799210 122.642471,137.229630 122.712494,130.498474 
	C122.803719,121.727875 122.734810,112.955612 122.734810,104.446060 
	C125.614883,103.432434 127.055489,104.877853 128.536682,105.783951 
	C150.854507,119.436562 175.719437,125.364922 201.098526,129.616745 
	C224.994644,133.620117 249.108871,134.322083 273.274780,133.604050 
	C284.921753,133.257996 296.483673,131.780594 308.483612,130.369690 
z"/>
<path fill="#000000" opacity="1.000000" stroke="none" 
	d="
M350.168030,188.058334 
	C364.212189,183.617508 377.354248,178.104523 389.112946,170.445602 
	C391.840698,171.926407 391.233154,173.970322 391.250946,175.684402 
	C391.325378,182.847183 391.142609,190.014297 391.307556,197.173996 
	C391.472900,204.349854 388.737091,210.078278 383.467041,214.788467 
	C372.383331,224.694641 358.987000,230.160202 345.067871,234.391693 
	C308.948730,245.372086 271.957794,247.877930 234.439453,245.619217 
	C209.733292,244.131851 185.517609,240.364075 162.099899,232.180481 
	C152.157684,228.706085 142.710648,224.221939 134.187836,217.909882 
	C126.447823,212.177567 122.067200,205.016464 122.649155,194.961792 
	C123.108040,187.033386 122.741379,179.057190 122.741379,171.567764 
	C125.176750,170.087860 126.334480,171.377518 127.549629,172.110046 
	C152.744888,187.298813 180.716354,193.617599 209.384216,197.587479 
	C226.047943,199.895050 242.805206,200.820236 259.650635,200.707703 
	C290.269928,200.503143 320.335999,196.614548 350.168030,188.058334 
z"/>
<path fill="#000000" opacity="1.000000" stroke="none" 
	d="
M346.488037,438.905121 
	C345.555145,436.434570 345.627991,434.258484 345.627411,432.093689 
	C345.623810,418.930817 345.580444,405.767731 345.643188,392.605164 
	C345.684113,384.017914 349.770111,379.356476 358.145203,378.903809 
	C364.789612,378.544647 371.481140,378.583618 378.129700,378.903717 
	C385.177734,379.243042 388.829926,382.177429 390.416565,387.882324 
	C391.593597,392.114594 391.659454,424.538116 390.306610,429.847137 
	C384.086823,425.529480 377.597443,421.103394 371.206726,428.953796 
	C367.993835,432.900482 368.684570,436.677582 373.540771,445.322388 
	C364.080322,449.636322 350.888794,446.683624 346.488037,438.905121 
z"/>
</svg>