<svg version="1.1" id="Layer_1" xmlns="http://www.w3.org/2000/svg" xmlns:xlink="http://www.w3.org/1999/xlink" x="0px" y="0px"
	 width="100%" viewBox="0 0 512 512" enable-background="new 0 0 512 512" xml:space="preserve">
<path fill="#FFFFFF" opacity="1.000000" stroke="none" 
	d="
M513.000000,379.000000 
	C513.000000,423.639191 513.000000,468.278412 513.000000,512.948730 
	C342.333344,512.948730 171.666656,512.948730 1.000000,512.948730 
	C1.000000,491.244110 1.000000,469.590729 1.362999,447.565430 
	C4.045022,448.129028 6.358275,449.861267 8.683952,449.878113 
	C35.175533,450.069946 61.669022,450.012512 88.161972,449.990387 
	C94.121628,449.985413 95.998741,448.035614 95.999023,442.065948 
	C96.000893,401.909943 96.000000,361.753937 96.000000,321.597931 
	C96.000000,319.823364 96.000000,318.048798 96.000000,315.590637 
	C102.422218,316.088959 108.292381,316.900024 114.164299,316.912964 
	C122.080536,316.930420 130.006943,316.470245 137.912613,315.960876 
	C145.589050,315.466278 153.364304,315.282135 160.887482,313.858765 
	C184.332977,309.422913 207.166168,303.125671 227.530548,289.914520 
	C243.969833,279.249756 257.515350,265.855133 266.762634,248.520676 
	C274.553040,233.917175 279.293518,218.360611 281.160309,201.765259 
	C282.724792,187.856750 283.319336,173.967880 280.822418,160.313416 
	C276.121918,134.608719 265.149353,112.150993 245.115860,94.406303 
	C233.155884,83.812752 219.687820,76.471428 204.905212,70.914955 
	C185.126114,63.480396 164.431458,59.863800 143.640961,59.344910 
	C115.178284,58.634537 86.642891,60.011086 58.163761,61.131161 
	C43.637753,61.702465 29.141537,63.450409 14.684926,65.124733 
	C10.036035,65.663155 5.556833,67.666718 1.000000,69.000000 
	C1.000000,46.344070 1.000000,23.688143 1.000000,1.016107 
	C171.575073,1.016107 342.150146,1.016107 513.000000,1.016107 
	C513.000000,115.020744 513.000000,229.041718 512.631104,343.415710 
	C511.840759,342.389313 511.331665,341.029907 511.011017,339.627380 
	C506.976654,321.982422 497.410919,307.700897 483.652008,296.347809 
	C469.208740,284.429962 451.972382,277.616882 434.692719,270.960388 
	C422.896393,266.416199 410.649292,262.883362 400.271973,255.090439 
	C391.388824,248.419571 395.235291,237.617371 401.566895,233.785812 
	C413.309387,226.679916 425.981964,228.428970 438.267914,230.335251 
	C451.417633,232.375549 464.074615,236.764923 476.013306,242.957611 
	C482.007416,246.066803 485.170288,244.710403 486.964722,238.096954 
	C492.092224,219.199493 497.101013,200.266586 501.756409,181.249680 
	C502.181335,179.513885 500.266815,176.119202 498.519958,175.148911 
	C493.935852,172.602737 488.937012,170.690811 483.936615,169.027649 
	C469.161957,164.113480 454.069550,160.430878 438.431458,160.070221 
	C424.109375,159.739914 409.646606,158.816299 395.476868,160.324600 
	C379.029694,162.075348 363.295593,167.374374 348.657318,175.658630 
	C332.408264,184.854416 319.541870,197.336945 311.126129,213.890976 
	C302.417908,231.020340 299.932831,249.426468 303.052917,268.415131 
	C305.186981,281.403076 310.875671,292.950684 319.432922,302.830841 
	C334.049744,319.707245 353.153717,329.933807 373.574158,337.990509 
	C384.888947,342.454651 396.450195,346.364838 407.488831,351.422791 
	C411.801849,353.399048 416.469788,357.148407 418.393433,361.289825 
	C423.194733,371.626465 416.789734,380.490997 405.005585,382.912567 
	C394.793762,385.011108 384.488037,384.629181 374.118225,383.089600 
	C355.323914,380.299225 337.516144,374.828033 320.947113,365.447327 
	C315.519897,362.374664 311.369324,363.939789 310.006500,369.401825 
	C305.104675,389.047974 300.185181,408.689728 295.287445,428.336884 
	C294.395081,431.916626 295.291351,434.534454 299.027527,436.038300 
	C306.899017,439.206635 314.533295,443.036682 322.548767,445.759705 
	C338.569885,451.202423 355.280151,454.021790 372.068787,454.770538 
	C389.971588,455.569031 407.949493,455.668335 425.800293,452.140869 
	C442.518707,448.837219 458.516571,443.980377 473.045410,434.968811 
	C488.954620,425.101074 500.977020,411.872772 507.473145,394.039276 
	C509.301086,389.020966 511.156921,384.012787 513.000000,379.000000 
z"/>
<path fill="#000000" opacity="1.000000" stroke="none" 
	d="
M1.000000,69.468658 
	C5.556833,67.666718 10.036035,65.663155 14.684926,65.124733 
	C29.141537,63.450409 43.637753,61.702465 58.163761,61.131161 
	C86.642891,60.011086 115.178284,58.634537 143.640961,59.344910 
	C164.431458,59.863800 185.126114,63.480396 204.905212,70.914955 
	C219.687820,76.471428 233.155884,83.812752 245.115860,94.406303 
	C265.149353,112.150993 276.121918,134.608719 280.822418,160.313416 
	C283.319336,173.967880 282.724792,187.856750 281.160309,201.765259 
	C279.293518,218.360611 274.553040,233.917175 266.762634,248.520676 
	C257.515350,265.855133 243.969833,279.249756 227.530548,289.914520 
	C207.166168,303.125671 184.332977,309.422913 160.887482,313.858765 
	C153.364304,315.282135 145.589050,315.466278 137.912613,315.960876 
	C130.006943,316.470245 122.080536,316.930420 114.164299,316.912964 
	C108.292381,316.900024 102.422218,316.088959 96.000000,315.590637 
	C96.000000,318.048798 96.000000,319.823364 96.000000,321.597931 
	C96.000000,361.753937 96.000893,401.909943 95.999023,442.065948 
	C95.998741,448.035614 94.121628,449.985413 88.161972,449.990387 
	C61.669022,450.012512 35.175533,450.069946 8.683952,449.878113 
	C6.358275,449.861267 4.045022,448.129028 1.362999,447.096771 
	C1.000000,321.312439 1.000000,195.624878 1.000000,69.468658 
M161.567993,141.959137 
	C150.233490,135.262177 137.375305,135.201462 124.915428,134.263214 
	C117.193474,133.681747 109.312241,135.565903 101.483467,135.909607 
	C97.374443,136.089996 95.873055,137.289062 95.899796,141.679611 
	C96.088463,172.654907 95.996964,203.631882 96.009697,234.608322 
	C96.010284,236.038361 96.152161,237.468338 96.233650,239.000107 
	C107.793137,239.000107 119.020737,239.799957 130.071060,238.744293 
	C138.741898,237.915955 147.603180,235.796753 155.667419,232.505447 
	C182.188461,221.681290 190.010742,195.166718 185.619263,172.496262 
	C182.981903,158.881073 175.066650,148.389221 161.567993,141.959137 
z"/>
<path fill="#000000" opacity="1.000000" stroke="none" 
	d="
M513.000000,378.531342 
	C511.156921,384.012787 509.301086,389.020966 507.473145,394.039276 
	C500.977020,411.872772 488.954620,425.101074 473.045410,434.968811 
	C458.516571,443.980377 442.518707,448.837219 425.800293,452.140869 
	C407.949493,455.668335 389.971588,455.569031 372.068787,454.770538 
	C355.280151,454.021790 338.569885,451.202423 322.548767,445.759705 
	C314.533295,443.036682 306.899017,439.206635 299.027527,436.038300 
	C295.291351,434.534454 294.395081,431.916626 295.287445,428.336884 
	C300.185181,408.689728 305.104675,389.047974 310.006500,369.401825 
	C311.369324,363.939789 315.519897,362.374664 320.947113,365.447327 
	C337.516144,374.828033 355.323914,380.299225 374.118225,383.089600 
	C384.488037,384.629181 394.793762,385.011108 405.005585,382.912567 
	C416.789734,380.490997 423.194733,371.626465 418.393433,361.289825 
	C416.469788,357.148407 411.801849,353.399048 407.488831,351.422791 
	C396.450195,346.364838 384.888947,342.454651 373.574158,337.990509 
	C353.153717,329.933807 334.049744,319.707245 319.432922,302.830841 
	C310.875671,292.950684 305.186981,281.403076 303.052917,268.415131 
	C299.932831,249.426468 302.417908,231.020340 311.126129,213.890976 
	C319.541870,197.336945 332.408264,184.854416 348.657318,175.658630 
	C363.295593,167.374374 379.029694,162.075348 395.476868,160.324600 
	C409.646606,158.816299 424.109375,159.739914 438.431458,160.070221 
	C454.069550,160.430878 469.161957,164.113480 483.936615,169.027649 
	C488.937012,170.690811 493.935852,172.602737 498.519958,175.148911 
	C500.266815,176.119202 502.181335,179.513885 501.756409,181.249680 
	C497.101013,200.266586 492.092224,219.199493 486.964722,238.096954 
	C485.170288,244.710403 482.007416,246.066803 476.013306,242.957611 
	C464.074615,236.764923 451.417633,232.375549 438.267914,230.335251 
	C425.981964,228.428970 413.309387,226.679916 401.566895,233.785812 
	C395.235291,237.617371 391.388824,248.419571 400.271973,255.090439 
	C410.649292,262.883362 422.896393,266.416199 434.692719,270.960388 
	C451.972382,277.616882 469.208740,284.429962 483.652008,296.347809 
	C497.410919,307.700897 506.976654,321.982422 511.011017,339.627380 
	C511.331665,341.029907 511.840759,342.389313 512.631104,343.884399 
	C513.000000,355.354218 513.000000,366.708466 513.000000,378.531342 
z"/>
<path fill="#FFFFFF" opacity="1.000000" stroke="none" 
	d="
M161.952637,141.994598 
	C175.066650,148.389221 182.981903,158.881073 185.619263,172.496262 
	C190.010742,195.166718 182.188461,221.681290 155.667419,232.505447 
	C147.603180,235.796753 138.741898,237.915955 130.071060,238.744293 
	C119.020737,239.799957 107.793137,239.000107 96.233650,239.000107 
	C96.152161,237.468338 96.010284,236.038361 96.009697,234.608322 
	C95.996964,203.631882 96.088463,172.654907 95.899796,141.679611 
	C95.873055,137.289062 97.374443,136.089996 101.483467,135.909607 
	C109.312241,135.565903 117.193474,133.681747 124.915428,134.263214 
	C137.375305,135.201462 150.233490,135.262177 161.952637,141.994598 
z"/>
</svg>