<svg version="1.1" id="Layer_1" xmlns="http://www.w3.org/2000/svg" xmlns:xlink="http://www.w3.org/1999/xlink" x="0px" y="0px"
	 width="100%" viewBox="0 0 512 512" enable-background="new 0 0 512 512" xml:space="preserve">
<path fill="#000000" opacity="1.000000" stroke="none" 
	d="
M513.000000,274.000000 
	C513.000000,353.631744 513.000000,433.263458 513.000000,512.947632 
	C342.443146,512.947632 171.886246,512.947632 1.000000,512.947632 
	C1.000000,433.644958 1.000000,354.289459 1.349518,274.201721 
	C2.129111,274.290405 2.719263,275.066193 2.965402,275.938995 
	C7.068648,290.488983 14.067453,303.362610 24.938541,314.391632 
	C31.985447,321.156525 38.615334,328.038330 46.054520,333.891510 
	C60.878490,345.555054 77.398277,354.527924 94.745010,361.833008 
	C103.272446,365.424072 112.206459,368.049683 121.139542,371.434570 
	C124.718864,372.840302 128.057220,374.179199 131.521118,374.964050 
	C149.326752,378.998444 167.164627,382.890472 185.420349,386.906433 
	C186.511093,386.993134 187.176926,386.961914 187.833801,387.024567 
	C201.632187,388.339966 215.430786,389.653503 229.225082,391.010742 
	C230.495712,391.135773 231.737579,391.553009 233.456970,391.906586 
	C244.944809,391.930054 255.968506,391.881500 267.454773,391.904480 
	C276.896484,391.645050 285.877197,391.348358 294.852722,390.937744 
	C295.913239,390.889221 296.945160,390.216217 298.443542,389.903198 
	C308.594482,388.927124 318.292267,387.880615 328.401733,386.901184 
	C339.204254,384.923401 349.595001,382.878540 360.377747,380.882751 
	C369.524719,378.326630 378.279663,375.721436 387.437195,373.076233 
	C388.963593,372.823151 390.152191,372.777222 391.201385,372.371185 
	C402.066559,368.166412 413.068787,364.266724 423.726349,359.584381 
	C449.108917,348.432617 472.269867,334.007446 490.730438,312.825104 
	C500.067291,302.111664 507.005432,290.165771 511.020325,276.515564 
	C511.299866,275.565186 512.322754,274.833405 513.000000,274.000000 
z"/>
<path fill="#000000" opacity="1.000000" stroke="none" 
	d="
M0.999999,240.000000 
	C1.000000,160.368271 1.000000,80.736549 1.000000,1.052409 
	C171.556870,1.052409 342.113770,1.052409 513.000000,1.052409 
	C513.000000,80.355042 513.000000,159.710541 512.612061,239.617767 
	C511.874512,239.839523 511.308960,239.565933 511.206055,239.171585 
	C503.863342,211.039795 485.029877,191.847366 461.851990,175.599976 
	C457.478058,172.861221 453.289276,170.404709 448.935913,167.639771 
	C442.863159,164.182953 436.955017,161.034592 430.855194,157.589844 
	C424.787384,154.826645 418.911194,152.359818 412.830811,149.591370 
	C407.077698,147.261032 401.528870,145.232346 395.599243,143.111908 
	C389.808929,141.401428 384.399384,139.782715 378.601929,138.086975 
	C374.178619,136.990601 370.143250,135.971252 365.896149,134.615128 
	C356.137909,132.479431 346.591370,130.680527 336.817383,128.542145 
	C334.664856,127.929314 332.745514,127.604134 330.813721,127.391930 
	C323.873718,126.629547 316.929565,125.905334 309.569092,125.088333 
	C301.096802,124.395676 293.042419,123.781387 284.561859,123.098503 
	C282.064606,122.688766 279.988800,122.026970 277.923157,122.057312 
	C261.679413,122.296005 245.405380,122.144836 229.204361,123.145256 
	C213.223160,124.132095 197.274445,126.002884 181.387665,128.071060 
	C161.299240,130.686218 141.698257,135.631302 122.432968,141.889954 
	C95.167854,150.747543 69.332474,162.416046 46.350082,179.897354 
	C36.010761,187.761826 26.111950,195.980728 18.565226,207.091858 
	C14.815015,213.115723 11.383797,219.007538 7.621583,225.080002 
	C5.792804,230.003647 4.325011,234.756760 2.733608,239.468109 
	C2.620674,239.802444 1.599078,239.829865 0.999999,240.000000 
z"/>
<path fill="#494D8A" opacity="1.000000" stroke="none" 
	d="
M462.037109,175.882248 
	C485.029877,191.847366 503.863342,211.039795 511.206055,239.171585 
	C511.308960,239.565933 511.874512,239.839523 512.612061,240.084747 
	C513.000000,251.020889 513.000000,262.041779 513.000000,273.531342 
	C512.322754,274.833405 511.299866,275.565186 511.020325,276.515564 
	C507.005432,290.165771 500.067291,302.111664 490.730438,312.825104 
	C472.269867,334.007446 449.108917,348.432617 423.726349,359.584381 
	C413.068787,364.266724 402.066559,368.166412 391.201385,372.371185 
	C390.152191,372.777222 388.963593,372.823151 387.460022,372.713776 
	C389.384277,368.582672 391.688232,364.774078 394.314056,360.808075 
	C410.790131,353.251007 427.387207,346.672119 442.991455,338.253082 
	C464.650604,326.567139 483.119873,310.887115 494.852234,288.622986 
	C505.960541,267.543091 505.753845,246.355194 494.797150,225.160492 
	C486.731842,209.558960 474.269165,197.945465 460.999237,186.564972 
	C461.345612,182.712006 461.691345,179.297134 462.037109,175.882248 
z"/>
<path fill="#8E92BD" opacity="1.000000" stroke="none" 
	d="
M24.887508,314.043365 
	C14.067453,303.362610 7.068648,290.488983 2.965402,275.938995 
	C2.719263,275.066193 2.129111,274.290405 1.349518,273.734741 
	C1.000000,273.250000 1.000000,272.500000 1.368795,271.349670 
	C2.980395,271.671600 4.530834,272.131744 5.410054,273.163727 
	C8.408246,276.682892 11.100995,280.461700 14.082703,283.995972 
	C14.652325,284.671173 16.005844,284.685028 17.261196,285.223328 
	C29.046951,308.890808 47.954422,324.955963 69.919579,338.013245 
	C72.796577,339.723480 75.349075,341.979614 77.675140,343.945984 
	C62.288937,339.131653 49.398502,330.576843 36.816181,321.407440 
	C33.050808,318.663422 28.875175,316.482361 24.887508,314.043365 
z"/>
<path fill="#9498C2" opacity="1.000000" stroke="none" 
	d="
M16.997704,285.003967 
	C16.005844,284.685028 14.652325,284.671173 14.082703,283.995972 
	C11.100995,280.461700 8.408246,276.682892 5.410054,273.163727 
	C4.530834,272.131744 2.980395,271.671600 1.368795,270.974670 
	C1.000000,262.645752 1.000000,254.291534 1.343193,245.507690 
	C3.270358,247.345444 4.724082,249.720596 6.481670,251.844269 
	C7.766727,253.396973 9.451400,254.618958 10.975195,256.442139 
	C10.933752,266.705475 13.049250,276.050537 16.997704,285.003967 
z"/>
<path fill="#9B9FC7" opacity="1.000000" stroke="none" 
	d="
M10.957945,255.988373 
	C9.451400,254.618958 7.766727,253.396973 6.481670,251.844269 
	C4.724082,249.720596 3.270358,247.345444 1.343193,245.039047 
	C1.000000,243.611115 1.000000,242.222214 0.999999,240.416656 
	C1.599078,239.829865 2.620674,239.802444 2.733608,239.468109 
	C4.325011,234.756760 5.792804,230.003647 7.670901,225.445038 
	C10.059817,228.766159 12.068420,231.902924 14.064978,235.449005 
	C13.021270,242.568359 11.989607,249.278366 10.957945,255.988373 
z"/>
<path fill="#888DB9" opacity="1.000000" stroke="none" 
	d="
M24.938538,314.391632 
	C28.875175,316.482361 33.050808,318.663422 36.816181,321.407440 
	C49.398502,330.576843 62.288937,339.131653 78.062729,343.945374 
	C80.253304,344.337250 81.760773,344.504547 83.092567,345.079041 
	C91.444061,348.681610 99.557587,352.950439 108.125839,355.910522 
	C122.937569,361.027496 138.023453,365.350983 152.898041,370.399353 
	C147.827515,371.013885 142.854507,371.378845 137.878754,371.421082 
	C132.239273,371.468994 126.597336,371.227753 120.956467,371.112213 
	C112.206459,368.049683 103.272446,365.424072 94.745010,361.833008 
	C77.398277,354.527924 60.878490,345.555054 46.054520,333.891510 
	C38.615334,328.038330 31.985447,321.156525 24.938538,314.391632 
z"/>
<path fill="#8185B4" opacity="1.000000" stroke="none" 
	d="
M121.139534,371.434570 
	C126.597336,371.227753 132.239273,371.468994 137.878754,371.421082 
	C142.854507,371.378845 147.827515,371.013885 153.300201,370.405090 
	C156.699921,370.679047 159.579514,371.462036 162.506119,371.978607 
	C175.997101,374.359711 189.501221,376.666504 202.951813,379.368866 
	C200.663239,380.824341 198.484787,382.070374 196.169662,382.961029 
	C192.491501,384.376129 188.722061,385.553986 184.991241,386.832214 
	C167.164627,382.890472 149.326752,378.998444 131.521118,374.964050 
	C128.057220,374.179199 124.718864,372.840302 121.139534,371.434570 
z"/>
<path fill="#787CAD" opacity="1.000000" stroke="none" 
	d="
M185.420349,386.906433 
	C188.722061,385.553986 192.491501,384.376129 196.169662,382.961029 
	C198.484787,382.070374 200.663239,380.824341 203.401489,379.368866 
	C218.872925,379.672791 233.846466,380.333069 248.816956,381.055939 
	C249.557877,381.091675 250.272507,381.672028 250.766022,382.267700 
	C246.179260,384.130707 241.714752,385.485504 237.524399,387.430847 
	C235.721069,388.268066 234.486023,390.329376 232.992798,391.834595 
	C231.737579,391.553009 230.495712,391.135773 229.225082,391.010742 
	C215.430786,389.653503 201.632187,388.339966 187.833801,387.024567 
	C187.176926,386.961914 186.511093,386.993134 185.420349,386.906433 
z"/>
<path fill="#7074A7" opacity="1.000000" stroke="none" 
	d="
M233.456970,391.906586 
	C234.486023,390.329376 235.721069,388.268066 237.524399,387.430847 
	C241.714752,385.485504 246.179260,384.130707 251.234497,382.268433 
	C261.626251,381.670044 271.316162,381.339844 280.961853,381.360352 
	C278.549347,383.340118 276.146820,384.921997 273.822418,386.611389 
	C271.504883,388.295807 269.265717,390.088013 266.992188,391.832947 
	C255.968506,391.881500 244.944809,391.930054 233.456970,391.906586 
z"/>
<path fill="#585C95" opacity="1.000000" stroke="none" 
	d="
M359.985779,380.833679 
	C349.595001,382.878540 339.204254,384.923401 328.450684,386.568787 
	C329.487183,384.584839 330.882111,382.996552 332.286713,381.416901 
	C334.188690,379.277863 336.098114,377.145447 338.396301,374.951080 
	C348.864655,372.613983 358.941010,370.336029 368.972229,368.397888 
	C367.561188,370.382111 366.109253,371.963593 364.850494,373.686279 
	C363.151123,376.011932 361.600342,378.446075 359.985779,380.833679 
z"/>
<path fill="#61659C" opacity="1.000000" stroke="none" 
	d="
M338.004333,375.010193 
	C336.098114,377.145447 334.188690,379.277863 332.286713,381.416901 
	C330.882111,382.996552 329.487183,384.584839 328.038971,386.501709 
	C318.292267,387.880615 308.594482,388.927124 298.493958,389.567810 
	C300.190063,387.372314 302.343719,385.642120 304.370422,383.774170 
	C305.996399,382.275604 307.468445,380.610016 309.430115,379.010040 
	C319.235748,377.671112 328.620026,376.340637 338.004333,375.010193 
z"/>
<path fill="#686CA1" opacity="1.000000" stroke="none" 
	d="
M309.008789,379.018555 
	C307.468445,380.610016 305.996399,382.275604 304.370422,383.774170 
	C302.343719,385.642120 300.190063,387.372314 298.040771,389.497375 
	C296.945160,390.216217 295.913239,390.889221 294.852722,390.937744 
	C285.877197,391.348358 276.896484,391.645050 267.454773,391.904480 
	C269.265717,390.088013 271.504883,388.295807 273.822418,386.611389 
	C276.146820,384.921997 278.549347,383.340118 281.418579,381.358185 
	C290.949280,380.343018 299.979034,379.680786 309.008789,379.018555 
z"/>
<path fill="#4F538E" opacity="1.000000" stroke="none" 
	d="
M360.377747,380.882751 
	C361.600342,378.446075 363.151123,376.011932 364.850494,373.686279 
	C366.109253,371.963593 367.561188,370.382111 369.360352,368.364868 
	C377.859802,365.649780 385.925995,363.307617 393.992218,360.965454 
	C391.688232,364.774078 389.384277,368.582672 387.057465,372.753754 
	C378.279663,375.721436 369.524719,378.326630 360.377747,380.882751 
z"/>
<path fill="#777BB3" opacity="1.000000" stroke="none" 
	d="
M394.314056,360.808075 
	C385.925995,363.307617 377.859802,365.649780 369.405457,368.025024 
	C358.941010,370.336029 348.864655,372.613983 338.396301,374.951050 
	C328.620026,376.340637 319.235748,377.671112 309.430115,379.010071 
	C299.979034,379.680786 290.949280,380.343018 281.462799,381.007446 
	C271.316162,381.339844 261.626251,381.670044 251.467834,381.999512 
	C250.272507,381.672028 249.557877,381.091675 248.816956,381.055939 
	C233.846466,380.333069 218.872925,379.672791 203.450302,379.000000 
	C189.501221,376.666504 175.997101,374.359711 162.506119,371.978607 
	C159.579514,371.462036 156.699921,370.679047 153.396500,370.013062 
	C138.023453,365.350983 122.937569,361.027496 108.125839,355.910522 
	C99.557587,352.950439 91.444061,348.681610 83.092567,345.079041 
	C81.760773,344.504547 80.253304,344.337250 78.439461,343.982330 
	C75.349075,341.979614 72.796577,339.723480 69.919579,338.013245 
	C47.954422,324.955963 29.046951,308.890808 17.261196,285.223328 
	C13.049250,276.050537 10.933752,266.705475 10.975193,256.442139 
	C11.989607,249.278366 13.021270,242.568359 14.326794,235.229431 
	C18.068501,228.067871 21.536348,221.535217 25.267197,214.801132 
	C32.461884,207.213303 38.709167,199.000778 46.448414,192.589172 
	C74.125946,169.659607 106.712654,156.424347 140.989258,147.092545 
	C163.569382,140.945114 186.531876,136.541321 209.936829,134.927963 
	C225.490921,133.855804 241.050003,132.688919 256.626984,132.176575 
	C266.395416,131.855255 276.201202,132.668686 286.417542,133.002106 
	C295.228607,133.699493 303.612335,134.367798 312.288452,135.311432 
	C321.050934,136.721436 329.521088,137.856110 338.349548,139.151672 
	C345.967529,140.844040 353.208313,142.474014 360.494080,143.868988 
	C364.672424,144.668991 365.906952,143.075058 365.375031,138.527344 
	C365.240814,137.379807 365.843719,136.146057 366.107880,134.951920 
	C370.143250,135.971252 374.178619,136.990601 378.605103,138.514709 
	C379.012268,147.919464 379.507599,148.631897 387.934998,151.462982 
	C390.606995,152.360596 393.313934,153.154160 396.338867,154.142914 
	C402.109528,156.200058 407.546234,158.109634 413.201385,160.291779 
	C418.947540,163.042404 424.475220,165.520477 430.212738,168.267151 
	C436.279572,171.695358 442.136566,174.854980 448.195831,178.279800 
	C452.598267,181.364349 456.798431,184.183701 460.998627,187.003067 
	C474.269165,197.945465 486.731842,209.558960 494.797150,225.160492 
	C505.753845,246.355194 505.960541,267.543091 494.852234,288.622986 
	C483.119873,310.887115 464.650604,326.567139 442.991455,338.253082 
	C427.387207,346.672119 410.790131,353.251007 394.314056,360.808075 
M107.156548,191.996490 
	C103.255524,192.702499 102.533005,195.712219 101.901665,198.965530 
	C93.441605,242.559967 84.933731,286.145111 76.449333,329.734833 
	C75.380547,335.225861 77.576424,337.932251 83.268806,337.977997 
	C91.932365,338.047638 100.600075,337.856018 109.259735,338.052460 
	C114.008736,338.160156 116.233963,336.013245 117.040398,331.519989 
	C118.568069,323.008026 120.459373,314.559784 121.896355,306.033936 
	C122.421867,302.915955 123.667603,301.923248 126.786369,301.990967 
	C134.779282,302.164459 142.783005,302.131470 150.776382,301.935364 
	C170.600128,301.448975 187.450760,294.452545 200.289001,278.893982 
	C201.617096,277.284454 202.958572,275.685974 204.293854,274.082367 
	C204.058640,280.930237 202.879272,287.377228 201.684921,293.821411 
	C200.636658,299.477570 202.597595,301.986755 208.357849,302.036835 
	C216.854706,302.110748 225.358704,301.864014 233.847961,302.128815 
	C239.119080,302.293213 241.173920,299.860809 242.094452,294.964417 
	C246.243179,272.896851 250.713058,250.889679 254.862259,228.822205 
	C255.468323,225.598877 256.855896,224.763870 259.846222,224.879547 
	C264.670929,225.066238 269.508179,224.914566 274.340027,224.933655 
	C285.601288,224.978134 286.726349,226.445679 284.554291,237.544708 
	C280.944733,255.989288 277.416382,274.449799 273.883820,292.909363 
	C272.538239,299.940765 274.273621,302.034454 281.412079,302.052185 
	C291.197540,302.076447 300.983032,302.058228 311.270599,302.058228 
	C309.459442,311.407623 307.676544,320.186523 306.078430,328.998901 
	C304.859955,335.717712 306.779541,337.958862 313.511780,337.988922 
	C321.342651,338.023895 329.173798,338.001587 337.004822,337.996399 
	C344.383453,337.991516 345.468964,337.073395 346.869141,329.769501 
	C348.617188,320.651093 350.379700,311.535431 352.219879,301.982941 
	C361.324066,301.982941 370.206390,302.718658 378.909515,301.784668 
	C388.405029,300.765625 398.533691,299.918610 406.987823,295.988312 
	C433.203613,283.800629 445.077423,261.890503 444.949402,233.334564 
	C444.868469,215.285202 434.299835,200.721268 417.139252,195.425735 
	C410.857849,193.487366 404.120758,192.280945 397.560059,192.132416 
	C378.242065,191.695053 358.906891,192.081619 339.581757,191.858353 
	C334.313080,191.797485 332.027374,194.112015 331.223511,198.956619 
	C330.206665,205.085083 328.949219,211.173615 327.795502,217.279373 
	C324.993652,206.415283 318.635254,198.809784 308.026886,195.788483 
	C300.906128,193.760437 293.408051,192.696793 286.006897,192.112823 
	C278.244781,191.500381 270.396881,191.975845 262.110474,191.975845 
	C263.939331,182.486526 265.661163,173.543411 267.386932,164.601044 
	C268.525574,158.701111 266.477173,156.040497 260.549866,155.991379 
	C252.219574,155.922318 243.888199,155.953964 235.557404,155.979553 
	C229.395737,155.998489 228.184830,157.077988 226.993637,163.269302 
	C223.568253,181.073059 220.136642,198.875626 216.674683,216.672287 
	C216.230896,218.953720 215.593018,221.197388 215.147293,223.036636 
	C212.318268,218.034561 210.117340,212.716766 206.692551,208.361328 
	C197.310074,196.429291 183.932327,192.437561 169.515656,192.117508 
	C149.031555,191.662750 128.530548,191.970810 107.156548,191.996490 
z"/>
<path fill="#ADB1D5" opacity="1.000000" stroke="none" 
	d="
M285.990234,132.972992 
	C276.201202,132.668686 266.395416,131.855255 256.626984,132.176575 
	C241.050003,132.688919 225.490921,133.855804 209.936829,134.927963 
	C186.531876,136.541321 163.569382,140.945114 140.989258,147.092545 
	C106.712654,156.424347 74.125946,169.659607 46.448414,192.589172 
	C38.709167,199.000778 32.461884,207.213303 24.907700,214.755173 
	C22.484875,212.260361 20.684547,209.610077 18.884220,206.959793 
	C26.111950,195.980728 36.010761,187.761826 46.350082,179.897354 
	C69.332474,162.416046 95.167854,150.747543 122.432968,141.889954 
	C141.698257,135.631302 161.299240,130.686218 181.387665,128.071060 
	C197.274445,126.002884 213.223160,124.132095 229.204361,123.145256 
	C245.405380,122.144836 261.679413,122.296005 277.923157,122.057312 
	C279.988800,122.026970 282.064606,122.688766 284.565552,123.510620 
	C285.327026,126.985222 285.658630,129.979111 285.990234,132.972992 
z"/>
<path fill="#868AB7" opacity="1.000000" stroke="none" 
	d="
M365.896149,134.615128 
	C365.843719,136.146057 365.240814,137.379807 365.375031,138.527344 
	C365.906952,143.075058 364.672424,144.668991 360.494080,143.868988 
	C353.208313,142.474014 345.967529,140.844040 338.352783,138.717529 
	C337.680054,135.042191 337.362457,131.961914 337.044861,128.881622 
	C346.591370,130.680527 356.137909,132.479431 365.896149,134.615128 
z"/>
<path fill="#9498C1" opacity="1.000000" stroke="none" 
	d="
M336.817383,128.542145 
	C337.362457,131.961914 337.680054,135.042191 337.994446,138.556625 
	C329.521088,137.856110 321.050934,136.721436 312.244324,134.925262 
	C311.267548,131.231415 310.627258,128.199051 309.986969,125.166695 
	C316.929565,125.905334 323.873718,126.629547 330.813721,127.391930 
	C332.745514,127.604134 334.664856,127.929314 336.817383,128.542145 
z"/>
<path fill="#A1A5CC" opacity="1.000000" stroke="none" 
	d="
M309.569092,125.088333 
	C310.627258,128.199051 311.267548,131.231415 311.951965,134.649933 
	C303.612335,134.367798 295.228607,133.699493 286.417572,133.002106 
	C285.658630,129.979111 285.327026,126.985222 284.991730,123.579224 
	C293.042419,123.781387 301.096802,124.395676 309.569092,125.088333 
z"/>
<path fill="#A3A7CD" opacity="1.000000" stroke="none" 
	d="
M18.565226,207.091858 
	C20.684547,209.610077 22.484875,212.260361 24.644701,214.956604 
	C21.536348,221.535217 18.068501,228.067871 14.338838,234.820099 
	C12.068420,231.902924 10.059817,228.766159 8.001897,225.264374 
	C11.383797,219.007538 14.815015,213.115723 18.565226,207.091858 
z"/>
<path fill="#61659C" opacity="1.000000" stroke="none" 
	d="
M430.002930,167.998535 
	C424.475220,165.520477 418.947540,163.042404 413.207642,159.833084 
	C413.008636,156.032211 413.021851,152.962616 413.035034,149.893005 
	C418.911194,152.359818 424.787384,154.826645 430.841431,158.044342 
	C430.680542,161.862991 430.341736,164.930771 430.002930,167.998535 
z"/>
<path fill="#585C95" opacity="1.000000" stroke="none" 
	d="
M430.212738,168.267136 
	C430.341736,164.930771 430.680542,161.862991 431.033081,158.340729 
	C436.955017,161.034592 442.863159,164.182953 448.633850,167.923065 
	C448.328796,171.681396 448.161194,174.847992 447.993591,178.014603 
	C442.136566,174.854980 436.279572,171.695358 430.212738,168.267136 
z"/>
<path fill="#6B6FA3" opacity="1.000000" stroke="none" 
	d="
M412.830811,149.591370 
	C413.021851,152.962616 413.008636,156.032211 412.989197,159.560516 
	C407.546234,158.109634 402.109528,156.200058 396.337158,153.718231 
	C395.994293,149.831863 395.987152,146.517761 395.980011,143.203659 
	C401.528870,145.232346 407.077698,147.261032 412.830811,149.591370 
z"/>
<path fill="#7377AA" opacity="1.000000" stroke="none" 
	d="
M395.599243,143.111908 
	C395.987152,146.517761 395.994293,149.831863 396.003174,153.570648 
	C393.313934,153.154160 390.606995,152.360596 387.934998,151.462982 
	C379.507599,148.631897 379.012268,147.919464 378.993042,138.591736 
	C384.399384,139.782715 389.808929,141.401428 395.599243,143.111908 
z"/>
<path fill="#4F538E" opacity="1.000000" stroke="none" 
	d="
M448.195831,178.279800 
	C448.161194,174.847992 448.328796,171.681396 448.798462,168.231506 
	C453.289276,170.404709 457.478058,172.861221 461.851990,175.599976 
	C461.691345,179.297134 461.345612,182.712006 460.999237,186.564972 
	C456.798431,184.183701 452.598267,181.364349 448.195831,178.279800 
z"/>
<path fill="#F7F7F8" opacity="1.000000" stroke="none" 
	d="
M107.596657,191.974701 
	C128.530548,191.970810 149.031555,191.662750 169.515656,192.117508 
	C183.932327,192.437561 197.310074,196.429291 206.692551,208.361328 
	C210.117340,212.716766 212.318268,218.034561 215.147293,223.036636 
	C215.593018,221.197388 216.230896,218.953720 216.674683,216.672287 
	C220.136642,198.875626 223.568253,181.073059 226.993637,163.269302 
	C228.184830,157.077988 229.395737,155.998489 235.557404,155.979553 
	C243.888199,155.953964 252.219574,155.922318 260.549866,155.991379 
	C266.477173,156.040497 268.525574,158.701111 267.386932,164.601044 
	C265.661163,173.543411 263.939331,182.486526 262.110474,191.975845 
	C270.396881,191.975845 278.244781,191.500381 286.006897,192.112823 
	C293.408051,192.696793 300.906128,193.760437 308.026886,195.788483 
	C318.635254,198.809784 324.993652,206.415283 327.795502,217.279373 
	C328.949219,211.173615 330.206665,205.085083 331.223511,198.956619 
	C332.027374,194.112015 334.313080,191.797485 339.581757,191.858353 
	C358.906891,192.081619 378.242065,191.695053 397.560059,192.132416 
	C404.120758,192.280945 410.857849,193.487366 417.139252,195.425735 
	C434.299835,200.721268 444.868469,215.285202 444.949402,233.334564 
	C445.077423,261.890503 433.203613,283.800629 406.987823,295.988312 
	C398.533691,299.918610 388.405029,300.765625 378.909515,301.784668 
	C370.206390,302.718658 361.324066,301.982941 352.219879,301.982941 
	C350.379700,311.535431 348.617188,320.651093 346.869141,329.769501 
	C345.468964,337.073395 344.383453,337.991516 337.004822,337.996399 
	C329.173798,338.001587 321.342651,338.023895 313.511780,337.988922 
	C306.779541,337.958862 304.859955,335.717712 306.078430,328.998901 
	C307.676544,320.186523 309.459442,311.407623 311.270599,302.058228 
	C300.983032,302.058228 291.197540,302.076447 281.412079,302.052185 
	C274.273621,302.034454 272.538239,299.940765 273.883820,292.909363 
	C277.416382,274.449799 280.944733,255.989288 284.554291,237.544708 
	C286.726349,226.445679 285.601288,224.978134 274.340027,224.933655 
	C269.508179,224.914566 264.670929,225.066238 259.846222,224.879547 
	C256.855896,224.763870 255.468323,225.598877 254.862259,228.822205 
	C250.713058,250.889679 246.243179,272.896851 242.094452,294.964417 
	C241.173920,299.860809 239.119080,302.293213 233.847961,302.128815 
	C225.358704,301.864014 216.854706,302.110748 208.357849,302.036835 
	C202.597595,301.986755 200.636658,299.477570 201.684921,293.821411 
	C202.879272,287.377228 204.058640,280.930237 204.293854,274.082367 
	C202.958572,275.685974 201.617096,277.284454 200.289001,278.893982 
	C187.450760,294.452545 170.600128,301.448975 150.776382,301.935364 
	C142.783005,302.131470 134.779282,302.164459 126.786369,301.990967 
	C123.667603,301.923248 122.421867,302.915955 121.896355,306.033936 
	C120.459373,314.559784 118.568069,323.008026 117.040398,331.519989 
	C116.233963,336.013245 114.008736,338.160156 109.259735,338.052460 
	C100.600075,337.856018 91.932365,338.047638 83.268806,337.977997 
	C77.576424,337.932251 75.380547,335.225861 76.449333,329.734833 
	C84.933731,286.145111 93.441605,242.559967 101.901665,198.965530 
	C102.533005,195.712219 103.255524,192.702499 107.596657,191.974701 
M204.771545,261.107880 
	C206.388901,254.851730 208.638443,248.680405 209.491623,242.321716 
	C211.251297,229.207047 208.990494,217.004257 198.431992,207.722702 
	C191.275055,201.431320 182.567825,198.359772 173.274185,198.101746 
	C153.128922,197.542435 132.963196,197.754318 112.811729,197.354126 
	C108.706291,197.272598 107.590828,198.735748 106.878944,202.503052 
	C101.506325,230.934937 95.870941,259.317108 90.345299,287.720184 
	C87.492661,302.383301 84.696533,317.057465 81.812294,332.051941 
	C91.761932,332.051941 101.332825,332.051941 111.101425,332.051941 
	C113.453072,320.128357 115.765236,308.404999 118.206673,296.026154 
	C130.237823,296.026154 142.077026,296.465088 153.872528,295.933624 
	C177.532547,294.867554 194.098282,282.842041 204.771545,261.107880 
M342.614227,197.455505 
	C340.851440,197.539368 339.088684,197.623215 337.386719,197.704178 
	C332.932831,220.420914 328.554840,242.590271 324.245789,264.773041 
	C319.908386,287.101532 315.639557,309.443329 311.291199,332.036072 
	C321.255127,332.036072 330.834442,332.036072 340.572693,332.036072 
	C342.917694,320.135071 345.215698,308.472656 347.643463,296.151672 
	C359.084198,296.151672 370.239166,296.588501 381.349304,296.068176 
	C412.290466,294.619019 433.295044,276.096405 438.509247,245.561401 
	C440.828125,231.981796 439.706116,218.857330 428.845917,208.579727 
	C421.501740,201.629517 412.354523,198.372726 402.528656,198.085327 
	C382.891266,197.510895 363.233704,197.625427 342.614227,197.455505 
M285.773285,261.260895 
	C283.497650,272.806305 281.222015,284.351685 278.822998,296.523071 
	C288.410248,296.523071 297.515930,296.603088 306.614655,296.388306 
	C307.443787,296.368713 308.729187,294.558380 308.959106,293.410583 
	C313.009674,273.189484 317.247864,252.997665 320.788483,232.684982 
	C324.447540,211.692688 317.482513,201.682648 296.313202,198.741684 
	C284.675659,197.124939 272.718658,197.802597 260.905212,197.462448 
	C259.174469,197.412598 257.441040,197.455521 255.308701,197.455521 
	C257.670319,185.100967 259.866272,173.613113 262.100372,161.925598 
	C252.101730,161.925598 242.676102,161.925598 233.018509,161.925598 
	C224.306595,206.757233 215.632019,251.396713 206.908966,296.285614 
	C216.908615,296.285614 226.315231,296.285614 236.018448,296.285614 
	C241.045532,270.509613 246.035416,244.924408 251.037262,219.277863 
	C260.174347,219.277863 269.007080,218.930313 277.801361,219.363235 
	C289.580322,219.943100 292.724396,224.252441 290.601471,235.908096 
	C289.111298,244.089615 287.481415,252.245697 285.773285,261.260895 
z"/>
<path fill="#030303" opacity="1.000000" stroke="none" 
	d="
M204.584183,261.442139 
	C194.098282,282.842041 177.532547,294.867554 153.872528,295.933624 
	C142.077026,296.465088 130.237823,296.026154 118.206673,296.026154 
	C115.765236,308.404999 113.453072,320.128357 111.101425,332.051941 
	C101.332825,332.051941 91.761932,332.051941 81.812294,332.051941 
	C84.696533,317.057465 87.492661,302.383301 90.345299,287.720184 
	C95.870941,259.317108 101.506325,230.934937 106.878944,202.503052 
	C107.590828,198.735748 108.706291,197.272598 112.811729,197.354126 
	C132.963196,197.754318 153.128922,197.542435 173.274185,198.101746 
	C182.567825,198.359772 191.275055,201.431320 198.431992,207.722702 
	C208.990494,217.004257 211.251297,229.207047 209.491623,242.321716 
	C208.638443,248.680405 206.388901,254.851730 204.584183,261.442139 
M179.023041,241.218369 
	C179.815292,226.368469 175.656708,220.547882 161.766571,219.324707 
	C152.386703,218.498734 142.875244,219.167221 133.102493,219.167221 
	C129.512878,237.640671 125.915283,256.155182 122.253059,275.002319 
	C130.377304,275.002319 138.172806,275.242584 145.948669,274.953766 
	C163.744568,274.292877 173.574341,266.165222 177.734131,248.997162 
	C178.280838,246.740814 178.565857,244.421066 179.023041,241.218369 
z"/>
<path fill="#030303" opacity="1.000000" stroke="none" 
	d="
M343.099365,197.455490 
	C363.233704,197.625427 382.891266,197.510895 402.528656,198.085327 
	C412.354523,198.372726 421.501740,201.629517 428.845917,208.579727 
	C439.706116,218.857330 440.828125,231.981796 438.509247,245.561401 
	C433.295044,276.096405 412.290466,294.619019 381.349304,296.068176 
	C370.239166,296.588501 359.084198,296.151672 347.643463,296.151672 
	C345.215698,308.472656 342.917694,320.135071 340.572693,332.036072 
	C330.834442,332.036072 321.255127,332.036072 311.291199,332.036072 
	C315.639557,309.443329 319.908386,287.101532 324.245789,264.773041 
	C328.554840,242.590271 332.932831,220.420914 337.386719,197.704178 
	C339.088684,197.623215 340.851440,197.539368 343.099365,197.455490 
M395.373657,268.970428 
	C406.600983,259.469879 409.160370,246.730957 408.408081,232.979691 
	C408.022400,225.929779 403.404907,221.283020 396.813782,220.471390 
	C385.540985,219.083267 374.120331,218.896255 362.725250,218.202591 
	C358.919250,237.876740 355.348572,256.334473 351.748871,274.942291 
	C360.607117,274.942291 368.821411,275.643555 376.846802,274.713837 
	C382.942535,274.007690 388.797852,271.226532 395.373657,268.970428 
z"/>
<path fill="#030303" opacity="1.000000" stroke="none" 
	d="
M285.843628,260.837036 
	C287.481415,252.245697 289.111298,244.089615 290.601471,235.908096 
	C292.724396,224.252441 289.580322,219.943100 277.801361,219.363235 
	C269.007080,218.930313 260.174347,219.277863 251.037262,219.277863 
	C246.035416,244.924408 241.045532,270.509613 236.018448,296.285614 
	C226.315231,296.285614 216.908615,296.285614 206.908966,296.285614 
	C215.632019,251.396713 224.306595,206.757233 233.018509,161.925598 
	C242.676102,161.925598 252.101730,161.925598 262.100372,161.925598 
	C259.866272,173.613113 257.670319,185.100967 255.308701,197.455521 
	C257.441040,197.455521 259.174469,197.412598 260.905212,197.462448 
	C272.718658,197.802597 284.675659,197.124939 296.313202,198.741684 
	C317.482513,201.682648 324.447540,211.692688 320.788483,232.684982 
	C317.247864,252.997665 313.009674,273.189484 308.959106,293.410583 
	C308.729187,294.558380 307.443787,296.368713 306.614655,296.388306 
	C297.515930,296.603088 288.410248,296.523071 278.822998,296.523071 
	C281.222015,284.351685 283.497650,272.806305 285.843628,260.837036 
z"/>
<path fill="#F8F8F9" opacity="1.000000" stroke="none" 
	d="
M178.997559,241.674530 
	C178.565857,244.421066 178.280838,246.740814 177.734131,248.997162 
	C173.574341,266.165222 163.744568,274.292877 145.948669,274.953766 
	C138.172806,275.242584 130.377304,275.002319 122.253059,275.002319 
	C125.915283,256.155182 129.512878,237.640671 133.102493,219.167221 
	C142.875244,219.167221 152.386703,218.498734 161.766571,219.324707 
	C175.656708,220.547882 179.815292,226.368469 178.997559,241.674530 
M168.503998,226.724594 
	C158.962112,225.899551 149.424606,225.009109 139.870422,224.367188 
	C139.060303,224.312759 137.551605,225.801468 137.356995,226.771759 
	C134.523392,240.898697 131.858627,255.059509 129.137436,269.296692 
	C134.797348,269.296692 140.088730,269.595734 145.336044,269.241791 
	C162.511719,268.083282 169.127182,262.323761 172.676437,245.784012 
	C173.198029,243.353455 173.662689,240.866959 173.737122,238.393814 
	C173.868530,234.027618 173.735626,229.629013 168.503998,226.724594 
z"/>
<path fill="#F8F8F9" opacity="1.000000" stroke="none" 
	d="
M395.066895,269.169556 
	C388.797852,271.226532 382.942535,274.007690 376.846802,274.713837 
	C368.821411,275.643555 360.607117,274.942291 351.748871,274.942291 
	C355.348572,256.334473 358.919250,237.876740 362.725250,218.202591 
	C374.120331,218.896255 385.540985,219.083267 396.813782,220.471390 
	C403.404907,221.283020 408.022400,225.929779 408.408081,232.979691 
	C409.160370,246.730957 406.600983,259.469879 395.066895,269.169556 
M364.183472,239.799866 
	C362.352295,249.541840 360.521118,259.283813 358.567657,269.676483 
	C369.018219,269.877991 379.016754,270.745819 388.000031,266.371429 
	C392.288483,264.283142 396.672150,260.136627 398.530426,255.847107 
	C401.223450,249.630661 402.042480,242.489120 402.945374,235.647766 
	C403.617889,230.552139 400.791840,226.655350 395.613586,226.011459 
	C386.310455,224.854599 376.924164,224.366501 367.530670,223.595535 
	C366.311798,229.558212 365.349518,234.265732 364.183472,239.799866 
z"/>
<path fill="#797DB4" opacity="1.000000" stroke="none" 
	d="
M168.861877,226.889603 
	C173.735626,229.629013 173.868530,234.027618 173.737122,238.393814 
	C173.662689,240.866959 173.198029,243.353455 172.676437,245.784012 
	C169.127182,262.323761 162.511719,268.083282 145.336044,269.241791 
	C140.088730,269.595734 134.797348,269.296692 129.137436,269.296692 
	C131.858627,255.059509 134.523392,240.898697 137.356995,226.771759 
	C137.551605,225.801468 139.060303,224.312759 139.870422,224.367188 
	C149.424606,225.009109 158.962112,225.899551 168.861877,226.889603 
z"/>
<path fill="#797DB4" opacity="1.000000" stroke="none" 
	d="
M364.285339,239.386566 
	C365.349518,234.265732 366.311798,229.558212 367.530670,223.595535 
	C376.924164,224.366501 386.310455,224.854599 395.613586,226.011459 
	C400.791840,226.655350 403.617889,230.552139 402.945374,235.647766 
	C402.042480,242.489120 401.223450,249.630661 398.530426,255.847107 
	C396.672150,260.136627 392.288483,264.283142 388.000031,266.371429 
	C379.016754,270.745819 369.018219,269.877991 358.567657,269.676483 
	C360.521118,259.283813 362.352295,249.541840 364.285339,239.386566 
z"/>
</svg>