<svg version="1.1" id="Layer_1" xmlns="http://www.w3.org/2000/svg" xmlns:xlink="http://www.w3.org/1999/xlink" x="0px" y="0px"
	 width="100%" viewBox="0 0 252 252" enable-background="new 0 0 252 252" xml:space="preserve">
<path fill="#000000" opacity="1.000000" stroke="none" 
	d="
M148.000000,253.000000 
	C98.666672,253.000000 49.833340,253.000000 1.000006,253.000000 
	C1.000004,169.000015 1.000004,85.000015 1.000002,1.000018 
	C84.999985,1.000012 168.999969,1.000012 252.999969,1.000006 
	C252.999969,84.999977 252.999969,168.999954 252.999985,252.999969 
	C218.166672,253.000000 183.333328,253.000000 148.000000,253.000000 
M88.078224,215.634491 
	C97.268562,208.439499 106.673752,201.499649 115.596039,193.986328 
	C127.325928,184.108780 138.882050,174.001724 150.110229,163.560379 
	C156.650848,157.478104 162.571518,150.696198 168.477707,143.971405 
	C181.104340,129.594727 193.963120,115.390198 205.938416,100.481865 
	C218.582474,84.740974 230.270950,68.208794 238.273849,49.488552 
	C242.123184,40.484283 246.487900,31.560171 246.038864,21.270952 
	C245.688812,13.249949 239.936111,7.325210 231.932251,6.956791 
	C221.469009,6.475165 211.921188,10.073062 203.090622,14.714557 
	C191.047424,21.044664 179.770874,28.822756 168.021469,35.735035 
	C166.468903,36.648430 163.851028,36.755436 162.094833,36.156315 
	C150.130341,32.074654 138.012344,30.050758 125.253159,29.792416 
	C98.264870,29.245964 75.924751,39.511177 56.922237,57.581059 
	C46.309067,67.673340 38.072247,79.832291 33.823318,94.092422 
	C29.701267,107.926720 27.039064,121.910110 28.754354,136.634521 
	C29.893255,146.411087 31.377249,155.899643 35.271526,164.966797 
	C35.669685,165.893860 35.470676,167.463013 34.924652,168.349991 
	C29.816814,176.647476 24.076778,184.595108 19.483288,193.160736 
	C12.456635,206.263550 4.866769,219.301788 5.920199,235.148941 
	C6.354625,241.684189 10.571228,247.234512 16.925945,246.904770 
	C23.960079,246.539749 31.269535,245.889328 37.859085,243.620529 
	C55.954468,237.390259 72.172684,227.442795 88.078224,215.634491 
M182.926987,149.435928 
	C159.477753,176.075378 132.507431,198.993713 105.556175,222.149063 
	C144.095566,228.648361 176.894730,219.255661 201.903366,188.560837 
	C221.573715,164.418045 227.183228,136.711411 221.458481,105.141777 
	C219.363983,107.342926 218.090683,108.569817 216.942871,109.904594 
	C205.761673,122.907120 194.601456,135.927673 182.926987,149.435928 
z"/>
<path fill="#193154" opacity="1.000000" stroke="none" 
	d="
M87.820427,215.890854 
	C72.172684,227.442795 55.954468,237.390259 37.859085,243.620529 
	C31.269535,245.889328 23.960079,246.539749 16.925945,246.904770 
	C10.571228,247.234512 6.354625,241.684189 5.920199,235.148941 
	C4.866769,219.301788 12.456635,206.263550 19.483288,193.160736 
	C24.076778,184.595108 29.816814,176.647476 34.924652,168.349991 
	C35.470676,167.463013 35.669685,165.893860 35.271526,164.966797 
	C31.377249,155.899643 29.893255,146.411087 28.754354,136.634521 
	C27.039064,121.910110 29.701267,107.926720 33.823318,94.092422 
	C38.072247,79.832291 46.309067,67.673340 56.922237,57.581059 
	C75.924751,39.511177 98.264870,29.245964 125.253159,29.792416 
	C138.012344,30.050758 150.130341,32.074654 162.094833,36.156315 
	C163.851028,36.755436 166.468903,36.648430 168.021469,35.735035 
	C179.770874,28.822756 191.047424,21.044664 203.090622,14.714557 
	C211.921188,10.073062 221.469009,6.475165 231.932251,6.956791 
	C239.936111,7.325210 245.688812,13.249949 246.038864,21.270952 
	C246.487900,31.560171 242.123184,40.484283 238.273849,49.488552 
	C230.270950,68.208794 218.582474,84.740974 205.938416,100.481865 
	C193.963120,115.390198 181.104340,129.594727 168.477707,143.971405 
	C162.571518,150.696198 156.650848,157.478104 150.110229,163.560379 
	C138.882050,174.001724 127.325928,184.108780 115.596039,193.986328 
	C106.673752,201.499649 97.268562,208.439499 87.820427,215.890854 
z"/>
<path fill="#193255" opacity="1.000000" stroke="none" 
	d="
M183.181122,149.189514 
	C194.601456,135.927673 205.761673,122.907120 216.942871,109.904594 
	C218.090683,108.569817 219.363983,107.342926 221.458481,105.141777 
	C227.183228,136.711411 221.573715,164.418045 201.903366,188.560837 
	C176.894730,219.255661 144.095566,228.648361 105.556175,222.149063 
	C132.507431,198.993713 159.477753,176.075378 183.181122,149.189514 
z"/>
</svg>