<svg version="1.1" id="Layer_1" xmlns="http://www.w3.org/2000/svg" xmlns:xlink="http://www.w3.org/1999/xlink" x="0px" y="0px"
	 width="100%" viewBox="0 0 225 225" enable-background="new 0 0 225 225" xml:space="preserve">
<path fill="#010101" opacity="1.000000" stroke="none" 
	d="
M120.000000,0.999999 
	C120.750000,1.000000 121.500000,1.000000 122.784256,1.384648 
	C170.079239,5.423564 210.492355,39.596592 222.087479,85.368706 
	C223.565140,91.201851 224.704117,97.120804 226.000000,103.000000 
	C226.000000,104.066437 226.000000,105.132881 225.669891,106.711365 
	C225.280121,108.131104 225.220474,109.038780 225.084427,110.385147 
	C225.058960,112.900406 225.109879,114.976967 225.107254,117.400375 
	C225.369125,118.498138 225.684555,119.249069 226.000000,120.000000 
	C226.000000,121.388893 226.000000,122.777779 225.624207,124.730270 
	C224.905746,127.260818 224.530212,129.222687 224.225235,131.195480 
	C217.135788,177.056351 182.024002,213.844635 136.300049,223.301514 
	C131.870163,224.217743 127.433510,225.101288 123.000000,226.000000 
	C122.250000,226.000000 121.500000,226.000000 120.263779,225.669540 
	C118.869225,225.279388 117.960907,225.219696 116.613976,225.083954 
	C114.099388,225.058609 112.023399,225.109314 109.600143,225.106415 
	C108.501915,225.368546 107.750961,225.684280 107.000000,226.000000 
	C105.611107,226.000000 104.222221,226.000000 102.269730,225.624222 
	C101.051575,225.137161 100.397301,225.024216 99.742424,224.914856 
	C50.229595,216.646225 18.368668,188.518692 4.549349,140.179977 
	C3.122676,135.189606 2.171700,130.063263 0.999999,125.000000 
	C1.000000,123.611107 1.000000,122.222221 1.330121,120.304955 
	C1.719890,118.868896 1.779538,117.961220 1.915580,116.614853 
	C1.941045,114.099594 1.890115,112.023033 1.892754,109.599625 
	C1.630882,108.501854 1.315441,107.750931 1.000000,107.000000 
	C1.000000,105.611107 1.000000,104.222221 1.375790,102.269745 
	C1.862858,101.051689 1.975898,100.397507 2.085161,99.742683 
	C10.347505,50.226803 38.474606,18.360266 86.818802,4.562902 
	C92.119713,3.050028 97.601891,2.172310 103.000000,1.000000 
	C104.066437,1.000000 105.132881,1.000000 106.710884,1.330447 
	C108.130775,1.720589 109.039093,1.780284 110.386024,1.916038 
	C112.900612,1.941391 114.976601,1.890685 117.399857,1.893597 
	C118.498085,1.631476 119.249046,1.315737 120.000000,0.999999 
M96.789703,75.549171 
	C91.435966,74.693275 86.030746,72.897247 80.739761,73.187035 
	C71.202782,73.709358 63.675030,78.519424 59.354778,87.328217 
	C55.091690,96.020470 57.045513,104.222343 62.411461,111.707047 
	C65.015518,115.339325 68.284790,118.493347 71.237442,121.877380 
	C75.572754,126.846069 76.308762,131.080231 73.613289,135.406433 
	C70.874268,139.802536 65.069191,141.909561 59.574284,140.502029 
	C52.187317,138.609863 51.048485,136.349457 53.966171,129.443741 
	C54.350594,128.533859 54.744122,127.593369 54.904633,126.628960 
	C55.894669,120.680595 52.464321,116.029182 46.902672,115.691368 
	C41.878876,115.386223 38.323612,119.253159 38.458973,125.196098 
	C38.612251,131.925873 42.160213,136.798172 47.564335,140.393799 
	C54.787697,145.199844 62.882626,146.922241 71.373993,145.843140 
	C80.833572,144.640976 88.417603,140.098251 92.453125,131.120819 
	C96.404526,122.330528 93.550491,114.570839 87.826416,107.560066 
	C85.301575,104.467659 82.618317,101.503746 79.982674,98.502853 
	C75.421196,93.309227 74.450951,88.314293 77.207947,84.061707 
	C80.212349,79.427513 85.035187,78.139687 91.834305,79.774750 
	C100.934029,81.963074 106.675056,88.957741 113.368866,94.574852 
	C114.004547,95.108276 114.136635,96.722214 113.926437,97.712189 
	C109.928467,116.541374 106.338036,135.478775 101.564316,154.112213 
	C99.252373,163.136520 95.140167,171.808380 90.973251,180.208328 
	C88.432556,185.330063 83.535591,188.748566 77.645950,189.846542 
	C76.258186,190.105255 74.645493,189.157501 73.136269,188.764755 
	C73.710457,187.392059 73.899384,185.483231 74.928543,184.743683 
	C78.517303,182.164810 79.282082,178.883194 77.765251,175.101212 
	C76.209839,171.223038 73.120338,169.054199 68.839127,169.084259 
	C63.635658,169.120819 60.026138,171.797821 57.993889,176.452744 
	C55.885822,181.281326 57.142681,185.716248 60.672390,189.300995 
	C65.620461,194.326172 71.971771,195.388504 78.661476,194.435226 
	C91.412720,192.618118 100.883888,185.332184 108.913559,175.790833 
	C121.508789,160.824387 127.191620,142.897202 130.937973,124.157921 
	C132.326309,117.213516 133.596344,110.245468 134.930161,103.236504 
	C144.665253,104.482216 153.737854,103.989723 161.413483,98.662575 
	C164.957306,96.203026 168.042282,92.014381 169.442139,87.956612 
	C170.212967,85.722206 167.728821,81.281845 165.426422,79.469009 
	C164.003174,78.348381 159.708557,79.602074 157.518219,81.035561 
	C154.467026,83.032440 154.677307,86.270355 156.815506,89.362656 
	C159.050049,92.594284 157.851761,94.958557 154.485596,96.484612 
	C148.572037,99.165504 142.459610,99.592995 136.167130,98.491608 
	C136.445389,88.730446 141.817642,67.134270 145.900574,59.210960 
	C149.168976,52.868275 153.639008,47.877518 161.241669,47.236477 
	C163.222931,47.069424 165.684692,47.643707 167.172104,48.825802 
	C167.840424,49.356941 166.961716,52.351910 166.253754,54.000820 
	C164.112701,58.987598 165.042572,62.993679 169.156357,65.198746 
	C173.672623,67.619553 179.204498,65.917511 181.611374,61.366592 
	C184.881332,55.183788 182.238342,48.132492 174.945221,45.052963 
	C163.656113,40.286137 153.080215,42.785286 143.356979,49.449841 
	C133.613800,56.128044 127.235977,65.644768 122.170593,76.094246 
	C119.977104,80.619225 118.087051,85.291290 116.254776,89.452332 
	C109.806190,84.807297 103.635223,80.362244 96.789703,75.549171 
z"/>
<path fill="#FDFDFD" opacity="1.000000" stroke="none" 
	d="
M226.000000,102.531342 
	C224.704117,97.120804 223.565140,91.201851 222.087479,85.368706 
	C210.492355,39.596592 170.079239,5.423564 123.159256,1.384648 
	C157.259918,1.000000 191.519821,1.000000 226.000000,1.000000 
	C226.000000,34.687241 226.000000,68.374962 226.000000,102.531342 
z"/>
<path fill="#FDFDFD" opacity="1.000000" stroke="none" 
	d="
M123.468658,226.000000 
	C127.433510,225.101288 131.870163,224.217743 136.300049,223.301514 
	C182.024002,213.844635 217.135788,177.056351 224.225235,131.195480 
	C224.530212,129.222687 224.905746,127.260818 225.624207,125.146927 
	C226.000000,158.594315 226.000000,192.188644 226.000000,226.000000 
	C191.979416,226.000000 157.958359,226.000000 123.468658,226.000000 
z"/>
<path fill="#FDFDFD" opacity="1.000000" stroke="none" 
	d="
M102.531342,1.000000 
	C97.601891,2.172310 92.119713,3.050028 86.818802,4.562902 
	C38.474606,18.360266 10.347505,50.226803 2.085161,99.742683 
	C1.975898,100.397507 1.862858,101.051689 1.375790,101.853088 
	C1.000000,68.406036 1.000000,34.812069 1.000000,1.000000 
	C34.687248,1.000000 68.374962,1.000000 102.531342,1.000000 
z"/>
<path fill="#FDFDFD" opacity="1.000000" stroke="none" 
	d="
M0.999999,125.468658 
	C2.171700,130.063263 3.122676,135.189606 4.549349,140.179977 
	C18.368668,188.518692 50.229595,216.646225 99.742424,224.914856 
	C100.397301,225.024216 101.051575,225.137161 101.853065,225.624222 
	C68.406395,226.000000 34.812790,226.000000 1.000000,226.000000 
	C1.000000,192.646088 1.000000,159.291702 0.999999,125.468658 
z"/>
<path fill="#606060" opacity="1.000000" stroke="none" 
	d="
M117.052582,1.839979 
	C114.976601,1.890685 112.900612,1.941391 110.406120,1.706702 
	C109.987610,1.421307 110.000000,1.000000 110.000000,1.000000 
	C112.041992,1.000000 114.083984,1.000000 116.569458,1.210413 
	C117.012932,1.420826 117.052582,1.839979 117.052582,1.839979 
z"/>
<path fill="#606060" opacity="1.000000" stroke="none" 
	d="
M109.947418,225.160034 
	C112.023399,225.109314 114.099388,225.058609 116.593872,225.293304 
	C117.012375,225.578705 117.000000,226.000000 117.000000,226.000000 
	C114.958008,226.000000 112.916016,226.000000 110.430557,225.789581 
	C109.987083,225.579178 109.947418,225.160019 109.947418,225.160034 
z"/>
<path fill="#606060" opacity="1.000000" stroke="none" 
	d="
M1.839186,109.946465 
	C1.890115,112.023033 1.941045,114.099594 1.705962,116.601753 
	C1.419950,117.027344 1.000000,117.000000 1.000000,117.000000 
	C1.000000,114.958008 1.000000,112.916016 1.209743,110.422791 
	C1.419486,109.971558 1.839186,109.946465 1.839186,109.946465 
z"/>
<path fill="#606060" opacity="1.000000" stroke="none" 
	d="
M225.160812,117.053535 
	C225.109879,114.976967 225.058960,112.900406 225.294037,110.398247 
	C225.580063,109.972656 226.000000,110.000000 226.000000,110.000000 
	C226.000000,112.041992 226.000000,114.083984 225.790253,116.577209 
	C225.580521,117.028442 225.160812,117.053535 225.160812,117.053535 
z"/>
<path fill="#828282" opacity="1.000000" stroke="none" 
	d="
M117.375000,226.000000 
	C117.000000,226.000000 117.012375,225.578705 117.032478,225.369354 
	C117.960907,225.219696 118.869225,225.279388 119.888779,225.669540 
	C119.250000,226.000000 118.500000,226.000000 117.375000,226.000000 
z"/>
<path fill="#828282" opacity="1.000000" stroke="none" 
	d="
M109.600143,225.106415 
	C109.947418,225.160019 109.987083,225.579178 109.993546,225.789581 
	C109.250000,226.000000 108.500000,226.000000 107.375000,226.000000 
	C107.750961,225.684280 108.501915,225.368546 109.600143,225.106415 
z"/>
<path fill="#828282" opacity="1.000000" stroke="none" 
	d="
M225.107254,117.400375 
	C225.160812,117.053535 225.580521,117.028442 225.790253,117.014221 
	C226.000000,117.750000 226.000000,118.500000 226.000000,119.625000 
	C225.684555,119.249069 225.369125,118.498138 225.107254,117.400375 
z"/>
<path fill="#828282" opacity="1.000000" stroke="none" 
	d="
M1.000000,117.375000 
	C1.000000,117.000000 1.419950,117.027344 1.629568,117.040436 
	C1.779538,117.961220 1.719890,118.868896 1.330121,119.888290 
	C1.000000,119.250000 1.000000,118.500000 1.000000,117.375000 
z"/>
<path fill="#828282" opacity="1.000000" stroke="none" 
	d="
M226.000000,109.625000 
	C226.000000,110.000000 225.580063,109.972656 225.370453,109.959564 
	C225.220474,109.038780 225.280121,108.131104 225.669891,107.111710 
	C226.000000,107.750000 226.000000,108.500000 226.000000,109.625000 
z"/>
<path fill="#828282" opacity="1.000000" stroke="none" 
	d="
M1.892754,109.599625 
	C1.839186,109.946465 1.419486,109.971558 1.209743,109.985779 
	C1.000000,109.250000 1.000000,108.500000 1.000000,107.375000 
	C1.315441,107.750931 1.630882,108.501854 1.892754,109.599625 
z"/>
<path fill="#828282" opacity="1.000000" stroke="none" 
	d="
M117.399857,1.893597 
	C117.052582,1.839979 117.012932,1.420826 117.006470,1.210413 
	C117.750000,1.000000 118.500000,1.000000 119.625000,0.999999 
	C119.249046,1.315737 118.498085,1.631476 117.399857,1.893597 
z"/>
<path fill="#828282" opacity="1.000000" stroke="none" 
	d="
M109.625000,1.000000 
	C110.000000,1.000000 109.987610,1.421307 109.967514,1.630643 
	C109.039093,1.780284 108.130775,1.720589 107.111221,1.330447 
	C107.750000,1.000000 108.500000,1.000000 109.625000,1.000000 
z"/>
<path fill="#FAFAFA" opacity="1.000000" stroke="none" 
	d="
M97.126984,75.733177 
	C103.635223,80.362244 109.806190,84.807297 116.254776,89.452332 
	C118.087051,85.291290 119.977104,80.619225 122.170593,76.094246 
	C127.235977,65.644768 133.613800,56.128044 143.356979,49.449841 
	C153.080215,42.785286 163.656113,40.286137 174.945221,45.052963 
	C182.238342,48.132492 184.881332,55.183788 181.611374,61.366592 
	C179.204498,65.917511 173.672623,67.619553 169.156357,65.198746 
	C165.042572,62.993679 164.112701,58.987598 166.253754,54.000820 
	C166.961716,52.351910 167.840424,49.356941 167.172104,48.825802 
	C165.684692,47.643707 163.222931,47.069424 161.241669,47.236477 
	C153.639008,47.877518 149.168976,52.868275 145.900574,59.210960 
	C141.817642,67.134270 136.445389,88.730446 136.167130,98.491608 
	C142.459610,99.592995 148.572037,99.165504 154.485596,96.484612 
	C157.851761,94.958557 159.050049,92.594284 156.815506,89.362656 
	C154.677307,86.270355 154.467026,83.032440 157.518219,81.035561 
	C159.708557,79.602074 164.003174,78.348381 165.426422,79.469009 
	C167.728821,81.281845 170.212967,85.722206 169.442139,87.956612 
	C168.042282,92.014381 164.957306,96.203026 161.413483,98.662575 
	C153.737854,103.989723 144.665253,104.482216 134.930161,103.236504 
	C133.596344,110.245468 132.326309,117.213516 130.937973,124.157921 
	C127.191620,142.897202 121.508789,160.824387 108.913559,175.790833 
	C100.883888,185.332184 91.412720,192.618118 78.661476,194.435226 
	C71.971771,195.388504 65.620461,194.326172 60.672390,189.300995 
	C57.142681,185.716248 55.885822,181.281326 57.993889,176.452744 
	C60.026138,171.797821 63.635658,169.120819 68.839127,169.084259 
	C73.120338,169.054199 76.209839,171.223038 77.765251,175.101212 
	C79.282082,178.883194 78.517303,182.164810 74.928543,184.743683 
	C73.899384,185.483231 73.710457,187.392059 73.136276,188.764755 
	C74.645493,189.157501 76.258186,190.105255 77.645950,189.846542 
	C83.535591,188.748566 88.432556,185.330063 90.973251,180.208328 
	C95.140167,171.808380 99.252373,163.136520 101.564316,154.112213 
	C106.338036,135.478775 109.928467,116.541374 113.926437,97.712189 
	C114.136635,96.722214 114.004547,95.108276 113.368866,94.574852 
	C106.675056,88.957741 100.934029,81.963074 91.834305,79.774750 
	C85.035187,78.139687 80.212349,79.427513 77.207947,84.061707 
	C74.450951,88.314293 75.421196,93.309227 79.982674,98.502853 
	C82.618317,101.503746 85.301575,104.467659 87.826416,107.560066 
	C93.550491,114.570839 96.404526,122.330528 92.453125,131.120819 
	C88.417603,140.098251 80.833572,144.640976 71.373993,145.843140 
	C62.882626,146.922241 54.787697,145.199844 47.564335,140.393799 
	C42.160213,136.798172 38.612251,131.925873 38.458973,125.196098 
	C38.323612,119.253159 41.878876,115.386223 46.902672,115.691368 
	C52.464321,116.029182 55.894669,120.680595 54.904633,126.628960 
	C54.744122,127.593369 54.350594,128.533859 53.966171,129.443741 
	C51.048485,136.349457 52.187317,138.609863 59.574284,140.502029 
	C65.069191,141.909561 70.874268,139.802536 73.613289,135.406433 
	C76.308762,131.080231 75.572754,126.846069 71.237442,121.877380 
	C68.284790,118.493347 65.015518,115.339325 62.411461,111.707047 
	C57.045513,104.222343 55.091690,96.020470 59.354778,87.328217 
	C63.675030,78.519424 71.202782,73.709358 80.739761,73.187035 
	C86.030746,72.897247 91.435966,74.693275 97.126984,75.733177 
z"/>
</svg>