<svg version="1.1" id="Layer_1" xmlns="http://www.w3.org/2000/svg" xmlns:xlink="http://www.w3.org/1999/xlink" x="0px" y="0px"
	 width="100%" viewBox="0 0 225 225" enable-background="new 0 0 225 225" xml:space="preserve">
<path fill="#010101" opacity="1.000000" stroke="none" 
	d="
M166.000000,226.000000 
	C165.250000,226.000000 164.500000,226.000000 163.270264,225.662109 
	C160.131119,223.700378 157.135712,222.448181 154.864578,220.394867 
	C133.772949,201.326004 112.806129,182.119064 91.802788,162.952545 
	C83.603470,155.470276 75.403305,147.988922 67.103500,140.415894 
	C65.745964,141.414810 64.681641,142.176773 63.639545,142.968018 
	C52.399258,151.502563 41.146145,160.020386 29.934288,168.592148 
	C26.377104,171.311722 22.019451,173.236450 18.507654,170.310715 
	C12.225107,165.076614 6.789590,158.825806 0.999998,153.000000 
	C1.000000,151.933487 1.000000,150.866959 1.127883,149.081024 
	C3.745962,145.522659 6.017741,142.449432 8.765990,139.887299 
	C18.231052,131.063248 27.862587,122.417755 37.663506,113.492226 
	C27.762497,104.484695 18.089607,95.846107 8.629659,86.980324 
	C5.782099,84.311615 3.526680,81.011093 1.000000,78.000000 
	C1.000000,76.933479 1.000000,75.866966 1.132727,74.082405 
	C5.491909,68.979607 9.565287,64.433380 13.980554,60.247795 
	C20.669477,53.906822 23.851429,53.908195 31.230783,59.519455 
	C43.099918,68.544739 54.988873,77.543945 66.969650,86.630157 
	C67.975365,85.775864 68.738739,85.167160 69.458305,84.510460 
	C93.909332,62.195530 118.260574,39.769783 142.866867,17.627462 
	C149.515198,11.644863 156.934555,6.519071 164.000000,1.000001 
	C164.444443,1.000000 164.888885,1.000000 165.793091,1.362178 
	C168.306030,2.281024 170.497925,2.544708 172.390411,3.440737 
	C187.468872,10.579824 202.517044,17.784534 217.511917,25.097454 
	C221.494095,27.039532 224.702148,29.862610 225.043686,35.231461 
	C224.986450,84.918922 224.983978,134.125168 225.045624,183.331329 
	C225.047989,185.221283 225.667862,187.110458 226.000000,189.000000 
	C226.000000,189.444443 226.000000,189.888885 225.722321,190.770813 
	C225.338959,191.573380 225.233276,191.938461 225.144135,192.661362 
	C222.847672,195.888000 221.122910,199.943756 218.124603,201.429642 
	C200.916977,209.957230 183.407242,217.875198 166.000000,226.000000 
M138.527542,140.966110 
	C148.764206,148.721725 159.000870,156.477341 169.700012,164.583344 
	C169.700012,130.207504 169.700012,96.712822 169.700012,62.384205 
	C147.001862,79.616707 124.850258,96.434273 102.379570,113.494087 
	C114.446648,122.660538 126.206696,131.593765 138.527542,140.966110 
z"/>
<path fill="#FEFEFE" opacity="1.000000" stroke="none" 
	d="
M163.531342,1.000001 
	C156.934555,6.519071 149.515198,11.644863 142.866867,17.627462 
	C118.260574,39.769783 93.909332,62.195530 69.458305,84.510460 
	C68.738739,85.167160 67.975365,85.775864 66.969650,86.630157 
	C54.988873,77.543945 43.099918,68.544739 31.230783,59.519455 
	C23.851429,53.908195 20.669477,53.906822 13.980554,60.247795 
	C9.565287,64.433380 5.491909,68.979607 1.132727,73.682182 
	C1.000000,49.711853 1.000000,25.423706 1.000000,1.000000 
	C55.020821,1.000000 109.041756,1.000000 163.531342,1.000001 
z"/>
<path fill="#FEFEFE" opacity="1.000000" stroke="none" 
	d="
M0.999998,153.468658 
	C6.789590,158.825806 12.225107,165.076614 18.507654,170.310715 
	C22.019451,173.236450 26.377104,171.311722 29.934288,168.592148 
	C41.146145,160.020386 52.399258,151.502563 63.639545,142.968018 
	C64.681641,142.176773 65.745964,141.414810 67.103500,140.415894 
	C75.403305,147.988922 83.603470,155.470276 91.802788,162.952545 
	C112.806129,182.119064 133.772949,201.326004 154.864578,220.394867 
	C157.135712,222.448181 160.131119,223.700378 162.895264,225.662109 
	C109.100700,226.000000 55.201405,226.000000 1.000000,226.000000 
	C1.000000,201.979950 1.000000,177.958633 0.999998,153.468658 
z"/>
<path fill="#FCFCFC" opacity="1.000000" stroke="none" 
	d="
M1.000000,78.468658 
	C3.526680,81.011093 5.782099,84.311615 8.629659,86.980324 
	C18.089607,95.846107 27.762497,104.484695 37.663506,113.492226 
	C27.862587,122.417755 18.231052,131.063248 8.765990,139.887299 
	C6.017741,142.449432 3.745962,145.522659 1.127883,148.680786 
	C1.000000,125.645775 1.000000,102.291542 1.000000,78.468658 
z"/>
<path fill="#FDFDFD" opacity="1.000000" stroke="none" 
	d="
M225.109497,34.750229 
	C224.702148,29.862610 221.494095,27.039532 217.511917,25.097454 
	C202.517044,17.784534 187.468872,10.579824 172.390411,3.440737 
	C170.497925,2.544708 168.306030,2.281024 166.126434,1.362178 
	C185.906464,1.000000 205.812912,1.000000 226.000000,1.000000 
	C226.000000,12.019308 226.000000,23.040997 225.776901,34.470596 
	C225.553802,34.878513 225.109497,34.750229 225.109497,34.750229 
z"/>
<path fill="#FCFCFC" opacity="1.000000" stroke="none" 
	d="
M166.468658,226.000000 
	C183.407242,217.875198 200.916977,209.957230 218.124603,201.429642 
	C221.122910,199.943756 222.847672,195.888000 225.375259,192.622940 
	C225.589859,192.226685 226.000000,192.000000 226.000000,192.000000 
	C226.000000,203.280319 226.000000,214.560654 226.000000,226.000000 
	C206.312698,226.000000 186.625000,226.000000 166.468658,226.000000 
z"/>
<path fill="#141414" opacity="1.000000" stroke="none" 
	d="
M225.043686,35.231461 
	C225.109497,34.750229 225.553802,34.878513 225.776901,34.939255 
	C226.000000,86.020897 226.000000,137.041794 226.000000,188.531342 
	C225.667862,187.110458 225.047989,185.221283 225.045624,183.331329 
	C224.983978,134.125168 224.986450,84.918922 225.043686,35.231461 
z"/>
<path fill="#141414" opacity="1.000000" stroke="none" 
	d="
M226.000000,191.750000 
	C226.000000,192.000000 225.589859,192.226685 225.358734,192.265106 
	C225.233276,191.938461 225.338959,191.573380 225.722321,191.104156 
	C226.000000,191.000000 226.000000,191.500000 226.000000,191.750000 
z"/>
<path fill="#FDFDFD" opacity="1.000000" stroke="none" 
	d="
M138.247147,140.746552 
	C126.206696,131.593765 114.446648,122.660538 102.379570,113.494087 
	C124.850258,96.434273 147.001862,79.616707 169.700012,62.384205 
	C169.700012,96.712822 169.700012,130.207504 169.700012,164.583344 
	C159.000870,156.477341 148.764206,148.721725 138.247147,140.746552 
z"/>
</svg>